<?xml version="1.0" encoding="utf-8"?>
<!-- Generator: Adobe Illustrator 27.9.0, SVG Export Plug-In . SVG Version: 6.00 Build 0)  -->
<svg version="1.1" id="Layer_1" xmlns="http://www.w3.org/2000/svg" xmlns:xlink="http://www.w3.org/1999/xlink" x="0px" y="0px"
	 viewBox="0 0 512 512" style="enable-background:new 0 0 512 512;" xml:space="preserve">
<style type="text/css">
	.st0{fill:#3667A1;}
</style>
<path class="st0" d="M280.3,134.4c-9.7-9-24.9-8.4-33.9,1.2c-9,9.7-8.5,24.9,1.2,33.9l67.3,62.4H144c-13.2,0-24,10.8-24,24
	c0,13.2,10.8,24,24,24h170.9l-67.2,62.4c-9.7,9.1-10.2,24.2-1.2,33.9c9,9.7,24.2,10.2,33.9,1.2l112-104c4.8-4.6,7.6-10.9,7.6-17.6
	s-2.8-13-7.7-17.6L280.3,134.4z M256,0C114.6,0,0,114.6,0,256s114.6,256,256,256s256-114.6,256-256S397.4,0,256,0z M256,464
	c-114.7,0-208-93.3-208-208S141.3,48,256,48s208,93.3,208,208S370.7,464,256,464z"/>
</svg>
