<?xml version="1.0" encoding="UTF-8"?>
<svg id="Layer_1" xmlns="http://www.w3.org/2000/svg" version="1.1" viewBox="0 0 448 512">
  <!-- Generator: Adobe Illustrator 29.0.1, SVG Export Plug-In . SVG Version: 2.1.0 Build 192)  -->
  <defs>
    <style>
      .st0 {
        fill: #3667a1;
      }
    </style>
  </defs>
  <path class="st0" d="M97.1,85.3c51.4,38.6,106.6,116.7,126.9,158.7,20.3-42,75.5-120.1,126.9-158.7,37.1-27.8,97.1-49.4,97.1,19.2s-7.8,114.9-12.4,131.4c-16,57.1-74.3,71.7-126.1,62.9,90.6,15.4,113.7,66.5,63.9,117.6-94.5,97-135.9-24.3-146.5-55.4-1.9-5.7-2.9-8.4-2.9-6.1,0-2.3-.9.4-2.9,6.1-10.6,31.1-51.9,152.4-146.5,55.4-49.8-51.1-26.7-102.2,63.9-117.6-51.8,8.8-110.1-5.8-126.1-62.9C7.8,219.4,0,118.2,0,104.5c0-68.5,60-47,97.1-19.2h0Z"/>
</svg>