<?xml version="1.0" standalone="no"?>
<!DOCTYPE svg PUBLIC "-//W3C//DTD SVG 20010904//EN"
 "http://www.w3.org/TR/2001/REC-SVG-20010904/DTD/svg10.dtd">
<svg version="1.0" xmlns="http://www.w3.org/2000/svg"
 width="1024.000000pt" height="1024.000000pt" viewBox="0 0 1024.000000 1024.000000"
 preserveAspectRatio="xMidYMid meet">
<metadata>
Created by potrace 1.14, written by Peter Selinger 2001-2017
</metadata>
<g transform="translate(0.000000,1024.000000) scale(0.100000,-0.100000)"
fill="#000000" stroke="none">
<path d="M4790 9759 c-981 -69 -1907 -446 -2675 -1087 -116 -98 -449 -431
-547 -547 -462 -553 -791 -1194 -958 -1868 -187 -756 -187 -1518 0 -2274 167
-674 496 -1315 958 -1868 98 -116 431 -449 547 -547 553 -462 1194 -791 1868
-958 756 -187 1518 -187 2274 0 674 167 1315 496 1868 958 116 98 449 431 547
547 529 633 880 1377 1022 2165 119 662 98 1322 -64 1977 -167 674 -496 1315
-958 1868 -98 116 -431 449 -547 547 -703 587 -1532 951 -2425 1062 -277 35
-634 44 -910 25z m535 -769 c973 -56 1854 -449 2535 -1130 921 -921 1316
-2230 1059 -3514 -147 -734 -521 -1428 -1059 -1966 -921 -921 -2230 -1316
-3514 -1059 -1398 280 -2556 1348 -2951 2723 -231 804 -195 1680 101 2453 543
1424 1880 2405 3394 2492 198 12 247 12 435 1z"/>
<path d="M4893 8539 c-1470 -100 -2720 -1158 -3073 -2602 -72 -291 -95 -490
-95 -817 0 -327 23 -526 95 -817 286 -1171 1170 -2110 2315 -2461 1024 -314
2139 -120 2997 521 775 579 1254 1416 1370 2392 17 144 17 586 0 730 -116 976
-595 1813 -1370 2392 -642 480 -1440 716 -2239 662z m417 -1100 c118 -18 218
-35 223 -39 13 -11 -188 -1495 -283 -2082 -11 -70 -20 -134 -20 -142 0 -7 40
-39 88 -69 407 -258 805 -666 1055 -1080 27 -46 36 -55 40 -40 3 10 119 774
257 1698 139 924 253 1681 254 1682 3 4 456 -64 461 -69 7 -6 -646 -4494 -655
-4507 -3 -4 -109 0 -236 7 l-231 15 -6 87 c-14 192 -81 441 -170 635 -138 298
-303 532 -546 775 -133 132 -370 330 -396 330 -6 0 -17 -35 -24 -77 -32 -200
-114 -581 -150 -698 -150 -494 -392 -809 -753 -980 -172 -81 -322 -115 -514
-115 -535 0 -1004 317 -1207 816 -239 590 -3 1373 518 1717 185 122 380 200
595 239 154 28 434 30 600 4 177 -27 401 -88 551 -150 21 -9 19 -22 78 374 39
261 231 1667 231 1694 0 9 13 8 240 -25z"/>
<path d="M3720 5065 c-181 -29 -381 -114 -510 -218 -152 -123 -283 -368 -320
-600 -20 -121 -8 -303 25 -407 45 -140 97 -230 190 -329 176 -188 482 -294
716 -248 224 45 401 166 527 360 128 198 197 430 302 1007 22 124 42 235 45
246 4 20 -8 27 -128 72 -310 117 -595 156 -847 117z"/>
</g>
</svg>
