<?xml version="1.0" encoding="utf-8"?>
<!-- Generator: Adobe Illustrator 27.9.0, SVG Export Plug-In . SVG Version: 6.00 Build 0)  -->
<svg version="1.1" id="Layer_2_00000157996830402619471060000003924904299497556897_"
	 xmlns="http://www.w3.org/2000/svg" xmlns:xlink="http://www.w3.org/1999/xlink" x="0px" y="0px" viewBox="0 0 1280 340.39"
	 style="enable-background:new 0 0 1280 340.39;" xml:space="preserve">
<style type="text/css">
	.st0{fill-rule:evenodd;clip-rule:evenodd;fill:#39546E;}
</style>
<path class="st0" d="M401.72,0H340.6v334.82h61.12V0z M310.24,96.96c-27.22-50.89-81.66-84.38-146.42-84.38
	C73.25,12.58,0,85.74,0,176.4s73.25,163.82,163.82,163.99c64.75,0,119.2-33.49,146.42-84.39l-56.26-31.26
	c-18.72,32.58-49.08,53.12-90.16,53.12c-55.35,0-98.66-45.95-98.66-101.38S108.47,75.1,163.82,75.1c41.08,0,71.44,20.54,90.16,53.12
	L310.24,96.96L310.24,96.96z M540.67,106.75c58.49,0,109.79,37.53,109.79,109.79c0,5.36,0,11.63-0.91,20.95H482.59
	c3.55,29.94,29.94,46.44,59.39,46.44c27.72,0,47.76-12.95,57.58-28.13l45.53,33.9c-20.54,29.94-56.67,49.99-103.61,49.99
	c-66.49,0-118.29-45.95-118.29-116.56c0-66.07,49.58-116.56,117.38-116.56l0.08,0.16L540.67,106.75z M484.83,196h104.51
	c-5.36-26.31-27.72-38.85-50.48-38.85S490.6,168.78,484.83,196z M713.77,111.62h-67.56l98.66,223.22h55.84l99.15-223.22h-68.3
	l-58.9,142.87l-58.9-142.87L713.77,111.62z M1006.96,106.74c58.48,0,109.79,37.53,109.79,109.79c0,5.36,0,11.63-0.91,20.95H948.88
	c3.55,29.94,29.94,46.44,59.39,46.44c27.72,0,47.76-12.95,57.58-28.13l45.54,33.9c-20.54,29.94-56.67,49.99-103.61,49.99
	c-66.49,0-118.29-45.95-118.29-116.56c0-66.07,49.58-116.56,117.38-116.56l0.08,0.16L1006.96,106.74z M951.11,195.99h104.52
	c-5.36-26.31-27.72-38.85-50.48-38.85S956.89,168.77,951.11,195.99L951.11,195.99z M1204.11,111.6h-61.21v223.22h61.12V228.08
	c0-36.63,19.22-59.39,48.26-59.39c9.82,0,18.31,1.81,27.72,4.95v-62.03c-7.59-2.23-14.27-2.64-20.54-2.64
	c-24.99,0-47.76,16.5-55.35,38.36v-35.72V111.6z"/>
</svg>
