<?xml version="1.0" encoding="utf-8"?>
<!-- Generator: Adobe Illustrator 27.9.0, SVG Export Plug-In . SVG Version: 6.00 Build 0)  -->
<svg version="1.1" id="a" xmlns="http://www.w3.org/2000/svg" xmlns:xlink="http://www.w3.org/1999/xlink" x="0px" y="0px"
	 viewBox="0 0 650.38 280.27" style="enable-background:new 0 0 650.38 280.27;" xml:space="preserve">
<style type="text/css">
	.st0{fill:#3A3A3A;}
	.st1{fill:#E5772C;}
	.st2{fill:#2294C6;}
</style>
<g>
	<path class="st0" d="M311.17,134.03c0-7.51,5.65-12.57,12.97-12.57c5.32,0,8.42,2.88,10.13,5.94l-4.45,2.19
		c-1.02-1.97-3.21-3.53-5.68-3.53c-4.45,0-7.65,3.39-7.65,7.98s3.21,7.98,7.65,7.98c2.48,0,4.66-1.57,5.68-3.53l4.45,2.15
		c-1.71,3.02-4.81,5.98-10.13,5.98c-7.32,0-12.97-5.1-12.97-12.57V134.03z"/>
	<path class="st0" d="M336.2,134.03c0-7.32,5.36-12.57,12.72-12.57s12.68,5.25,12.68,12.57c0,7.32-5.36,12.57-12.68,12.57
		S336.2,141.35,336.2,134.03z M356.28,134.03c0-4.55-2.88-7.98-7.36-7.98s-7.4,3.43-7.4,7.98s2.88,7.98,7.4,7.98
		S356.28,138.55,356.28,134.03z"/>
	<path class="st0" d="M365.01,146.16v-24.3h5.21v19.75h10.28v4.55H365.01z"/>
	<path class="st0" d="M383.78,146.16v-24.3h5.21v19.75h10.28v4.55H383.78z"/>
	<path class="st0" d="M419.55,146.16l-1.53-4.12H407.6l-1.53,4.12h-5.87l9.36-24.3h6.49l9.36,24.3h-5.87H419.55z M412.81,127.03
		l-3.79,10.46h7.58L412.81,127.03L412.81,127.03z"/>
	<path class="st0" d="M427.68,146.16v-24.3h12.79c4.63,0,7,2.95,7,6.19c0,3.02-1.9,5.1-4.19,5.58c2.62,0.4,4.66,2.92,4.66,5.94
		c0,3.68-2.41,6.6-7.07,6.6h-13.19V146.16z M442.18,128.96c0-1.49-1.09-2.55-2.84-2.55h-6.49v5.1h6.49
		C441.09,131.51,442.18,130.53,442.18,128.96z M442.65,138.83c0-1.53-1.09-2.77-3.1-2.77h-6.7v5.54h6.7
		C441.48,141.6,442.65,140.58,442.65,138.83L442.65,138.83z"/>
	<path class="st0" d="M450.66,134.03c0-7.32,5.36-12.57,12.72-12.57s12.68,5.25,12.68,12.57c0,7.32-5.36,12.57-12.68,12.57
		S450.66,141.35,450.66,134.03z M470.74,134.03c0-4.55-2.88-7.98-7.36-7.98s-7.4,3.43-7.4,7.98s2.88,7.98,7.4,7.98
		S470.74,138.55,470.74,134.03z"/>
	<path class="st0" d="M493.44,146.16l-4.77-8.64h-3.79v8.64h-5.17v-24.3h11.37c5.06,0,8.2,3.32,8.2,7.83c0,4.26-2.73,6.6-5.36,7.21
		l5.5,9.26H493.44z M493.95,129.65c0-2-1.57-3.24-3.61-3.24h-5.47v6.56h5.47C492.38,132.97,493.95,131.73,493.95,129.65z"/>
	<path class="st0" d="M519.92,146.16l-1.53-4.12h-10.42l-1.53,4.12h-5.87l9.36-24.3h6.49l9.36,24.3h-5.87H519.92z M513.18,127.03
		l-3.79,10.46h7.58L513.18,127.03z"/>
	<path class="st0" d="M531.32,146.16v-19.75h-7.11v-4.55h19.38v4.55h-7.07v19.75h-5.21H531.32z"/>
	<path class="st0" d="M546.91,146.16v-24.3h5.17v24.3H546.91z"/>
	<path class="st0" d="M563.71,146.16l-9.36-24.3h5.87l6.74,18.66l6.74-18.66h5.87l-9.36,24.3h-6.49H563.71z"/>
	<path class="st0" d="M581.81,146.16v-24.3h17.2v4.55h-12.02v5.1h11.77v4.55h-11.77v5.54h12.02v4.55L581.81,146.16L581.81,146.16z"
		/>
	<path class="st0" d="M310.66,186.46l2.84-4.04c1.71,1.79,4.37,3.32,7.73,3.32c2.88,0,4.23-1.28,4.23-2.7
		c0-4.23-13.99-1.27-13.99-10.42c0-4.04,3.5-7.4,9.22-7.4c3.86,0,7.07,1.17,9.47,3.39l-2.88,3.86c-1.97-1.82-4.59-2.66-7.07-2.66
		c-2.19,0-3.42,0.95-3.42,2.4c0,3.83,13.96,1.24,13.96,10.31c0,4.45-3.21,7.8-9.73,7.8C316.32,190.32,312.97,188.75,310.66,186.46
		L310.66,186.46z"/>
	<path class="st0" d="M334.19,189.88v-24.3h17.2v4.55h-12.02v5.1h11.77v4.55h-11.77v5.54h12.02v4.55L334.19,189.88L334.19,189.88z"
		/>
	<path class="st0" d="M369.17,189.88l-4.77-8.64h-3.79v8.64h-5.17v-24.3h11.37c5.06,0,8.2,3.32,8.2,7.83c0,4.26-2.73,6.6-5.36,7.21
		l5.5,9.26H369.17z M369.68,173.37c0-2-1.57-3.24-3.61-3.24h-5.47v6.56h5.47C368.11,176.69,369.68,175.45,369.68,173.37
		L369.68,173.37z"/>
	<path class="st0" d="M385.67,189.88l-9.36-24.3h5.87l6.74,18.66l6.74-18.66h5.87l-9.36,24.3h-6.49H385.67z"/>
	<path class="st0" d="M403.78,189.88v-24.3h5.17v24.3H403.78z"/>
	<path class="st0" d="M412.59,177.75c0-7.51,5.65-12.57,12.97-12.57c5.32,0,8.42,2.88,10.13,5.94l-4.45,2.19
		c-1.02-1.97-3.21-3.53-5.68-3.53c-4.45,0-7.65,3.39-7.65,7.98s3.21,7.98,7.65,7.98c2.48,0,4.66-1.57,5.68-3.53l4.45,2.15
		c-1.71,3.02-4.81,5.98-10.13,5.98c-7.32,0-12.97-5.1-12.97-12.57V177.75z"/>
	<path class="st0" d="M438.79,189.88v-24.3h17.2v4.55h-12.02v5.1h11.77v4.55h-11.77v5.54h12.02v4.55L438.79,189.88L438.79,189.88z"
		/>
	<path class="st0" d="M490.52,189.88v-17.53l-6.85,17.53h-2.26l-6.85-17.53v17.53h-5.17v-24.3h7.25l5.9,15.19l5.9-15.19h7.29v24.3
		H490.52L490.52,189.88z"/>
	<path class="st0" d="M517.33,189.88l-1.53-4.12h-10.42l-1.53,4.12h-5.87l9.36-24.3h6.49l9.36,24.3h-5.87H517.33z M510.59,170.75
		l-3.79,10.46h7.58L510.59,170.75L510.59,170.75z"/>
	<path class="st0" d="M525.45,189.88v-24.3h11.37c5.28,0,8.16,3.57,8.16,7.83s-2.92,7.8-8.16,7.8h-6.19v8.67h-5.17H525.45z
		 M539.7,173.41c0-2.04-1.57-3.28-3.61-3.28h-5.47v6.52h5.47C538.13,176.65,539.7,175.41,539.7,173.41z"/>
	<path class="st0" d="M311.17,221.47c0-7.32,5.36-12.57,12.72-12.57s12.68,5.25,12.68,12.57s-5.36,12.57-12.68,12.57
		S311.17,228.79,311.17,221.47z M331.25,221.47c0-4.55-2.88-7.98-7.36-7.98s-7.4,3.43-7.4,7.98s2.88,7.98,7.4,7.98
		S331.25,225.99,331.25,221.47z"/>
	<path class="st0" d="M340.2,233.6v-24.3h17.2v4.55h-12.02v5.1h11.77v4.55h-11.77v10.09h-5.17L340.2,233.6z"/>
	<path class="st0" d="M369.2,221.47c0-7.32,5.36-12.57,12.72-12.57s12.68,5.25,12.68,12.57s-5.36,12.57-12.68,12.57
		S369.2,228.79,369.2,221.47z M389.28,221.47c0-4.55-2.88-7.98-7.36-7.98s-7.4,3.43-7.4,7.98s2.88,7.98,7.4,7.98
		S389.28,225.99,389.28,221.47z"/>
	<path class="st0" d="M398.24,233.6v-24.3h11.37c5.28,0,8.16,3.57,8.16,7.83s-2.92,7.8-8.16,7.8h-6.19v8.67H398.24L398.24,233.6z
		 M412.49,217.13c0-2.04-1.57-3.28-3.61-3.28h-5.47v6.52h5.47C410.92,220.37,412.49,219.13,412.49,217.13z"/>
	<path class="st0" d="M421.01,233.6v-24.3h11.37c5.28,0,8.16,3.57,8.16,7.83s-2.92,7.8-8.16,7.8h-6.19v8.67H421.01L421.01,233.6z
		 M435.26,217.13c0-2.04-1.57-3.28-3.61-3.28h-5.47v6.52h5.47C433.69,220.37,435.26,219.13,435.26,217.13z"/>
	<path class="st0" d="M442.61,221.47c0-7.32,5.36-12.57,12.72-12.57s12.68,5.25,12.68,12.57s-5.36,12.57-12.68,12.57
		S442.61,228.79,442.61,221.47z M462.69,221.47c0-4.55-2.88-7.98-7.36-7.98s-7.4,3.43-7.4,7.98s2.88,7.98,7.4,7.98
		S462.69,225.99,462.69,221.47z"/>
	<path class="st0" d="M485.39,233.6l-4.77-8.64h-3.79v8.64h-5.17v-24.3h11.37c5.06,0,8.2,3.32,8.2,7.83c0,4.26-2.73,6.6-5.36,7.21
		l5.5,9.26H485.39z M485.9,217.09c0-2-1.57-3.24-3.61-3.24h-5.47v6.56h5.47C484.33,220.41,485.9,219.17,485.9,217.09L485.9,217.09z"
		/>
	<path class="st0" d="M500.68,233.6v-19.75h-7.1v-4.55h19.38v4.55h-7.07v19.75H500.68L500.68,233.6z"/>
	<path class="st0" d="M516.28,223.87v-14.58h5.25v14.43c0,3.39,1.97,5.72,5.72,5.72s5.68-2.33,5.68-5.72v-14.43h5.28v14.58
		c0,6.01-3.57,10.17-10.97,10.17S516.27,229.89,516.28,223.87L516.28,223.87z"/>
	<path class="st0" d="M559.78,233.6l-11.59-15.85v15.85h-5.17v-24.3h5.32l11.26,15.27V209.3h5.17v24.3H559.78z"/>
	<path class="st0" d="M569.57,233.6v-24.3h5.17v24.3H569.57z"/>
	<path class="st0" d="M585.17,233.6v-19.75h-7.11v-4.55h19.38v4.55h-7.07v19.75h-5.21H585.17z"/>
	<path class="st0" d="M600.76,233.6v-24.3h5.17v24.3H600.76z"/>
	<path class="st0" d="M610.74,233.6v-24.3h17.2v4.55h-12.02v5.1h11.77v4.55h-11.77v5.54h12.02v4.55L610.74,233.6L610.74,233.6z"/>
	<path class="st0" d="M630.3,230.17l2.84-4.04c1.71,1.79,4.37,3.32,7.73,3.32c2.88,0,4.23-1.28,4.23-2.7
		c0-4.23-13.99-1.28-13.99-10.42c0-4.04,3.5-7.4,9.22-7.4c3.86,0,7.07,1.17,9.47,3.39l-2.88,3.86c-1.97-1.82-4.59-2.66-7.07-2.66
		c-2.19,0-3.43,0.95-3.43,2.4c0,3.83,13.96,1.24,13.96,10.31c0,4.45-3.21,7.8-9.73,7.8C635.95,234.03,632.6,232.46,630.3,230.17
		L630.3,230.17z"/>
</g>
<g>
	<path class="st1" d="M312.88,74.08c0-17.85,13.43-29.9,30.85-29.9c12.65,0,20.02,6.85,24.09,14.13l-10.57,5.2
		c-2.43-4.68-7.63-8.41-13.52-8.41c-10.57,0-18.2,8.06-18.2,18.98s7.63,18.98,18.2,18.98c5.89,0,11.09-3.73,13.52-8.41l10.57,5.11
		c-4.07,7.19-11.44,14.21-24.09,14.21c-17.42,0-30.85-12.13-30.85-29.9V74.08z"/>
	<path class="st1" d="M372.41,74.08c0-17.42,12.74-29.9,30.25-29.9s30.16,12.48,30.16,29.9s-12.74,29.9-30.16,29.9
		S372.41,91.5,372.41,74.08z M420.17,74.08c0-10.83-6.85-18.98-17.51-18.98s-17.59,8.15-17.59,18.98s6.85,18.98,17.59,18.98
		S420.17,84.83,420.17,74.08z"/>
	<path class="st1" d="M437.5,94.8l6.76-9.62c4.07,4.25,10.4,7.89,18.37,7.89c6.85,0,10.05-3.03,10.05-6.41
		c0-10.05-33.28-3.03-33.28-24.79c0-9.62,8.32-17.59,21.93-17.59c9.19,0,16.81,2.77,22.53,8.06l-6.85,9.19
		c-4.68-4.33-10.92-6.33-16.81-6.33c-5.2,0-8.15,2.25-8.15,5.72c0,9.1,33.19,2.95,33.19,24.53c0,10.57-7.63,18.55-23.14,18.55
		c-11.18,0-19.15-3.73-24.61-9.19L437.5,94.8z"/>
	<path class="st2" d="M543.75,102.94V61.25l-16.29,41.69h-5.37L505.8,61.25v41.69h-12.31V45.13h17.25l14.04,36.14l14.04-36.14h17.33
		v57.81h-12.39H543.75z"/>
	<path class="st2" d="M564.81,74.08c0-17.42,12.74-29.9,30.25-29.9s30.16,12.48,30.16,29.9s-12.74,29.9-30.16,29.9
		S564.81,91.5,564.81,74.08z M612.57,74.08c0-10.83-6.85-18.98-17.51-18.98s-17.59,8.15-17.59,18.98s6.85,18.98,17.59,18.98
		S612.57,84.83,612.57,74.08z"/>
</g>
<path class="st2" d="M117.97,193.71c-29.69,0-53.84-24.15-53.84-53.84s24.15-53.84,53.84-53.84v10.54c-23.87,0-43.3,19.42-43.3,43.3
	s19.42,43.3,43.3,43.3V193.71z"/>
<path class="st1" d="M117.14,193.71v-10.54c23.87,0,43.3-19.42,43.3-43.3s-19.42-43.3-43.3-43.3V86.03
	c29.69,0,53.84,24.15,53.84,53.84S146.83,193.71,117.14,193.71z"/>
<path class="st2" d="M222.44,255.55L222.44,255.55c-6.47,0-11.73,5.26-11.73,11.73c0,6.47,5.26,11.73,11.73,11.73
	c6.47,0,11.73-5.26,11.73-11.73C234.17,260.81,228.91,255.55,222.44,255.55z"/>
<circle class="st1" cx="12.99" cy="12.99" r="11.73"/>
<circle class="st1" cx="89.13" cy="243.2" r="11.73"/>
<circle class="st2" cx="147.56" cy="39.27" r="11.73"/>
<g>
	<path class="st2" d="M224.48,139.96c-0.02-0.71-0.61-17.56-10.21-38.78c-7.92-17.52-23.62-41.09-54.13-58.74
		c-0.72,2.84-2.36,5.31-4.61,7.06c23.24,13.28,40.34,31.67,50.89,54.81c9.01,19.74,9.62,35.74,9.62,35.85
		c0.55,28.7-9.56,53.09-30.04,72.5c-15.44,14.63-31.31,20.81-31.48,20.87l-9.96,3.83l3.02,7.87h0.01l9.94-3.82
		c0.7-0.27,17.37-6.71,34.02-22.39C206.98,204.49,225.22,178.98,224.48,139.96z"/>
	<path class="st2" d="M159.01,41.78c-3.15-1.78-6.45-3.51-9.91-5.15l-3.62,7.62c3.05,1.45,5.98,2.99,8.85,4.59
		C156.67,47.17,158.38,44.68,159.01,41.78z"/>
</g>
<g>
	<path class="st1" d="M154.93,93.92c-25.15-41.61-71.5-63.67-105.95-74.85l-23.02-6.44c0,0.12,0.02,0.24,0.02,0.36
		c0,2.88-0.95,5.53-2.55,7.69l23.03,6.44c32.9,10.68,77.09,31.62,100.96,70.68c14.23,23.28,14.49,42.31,14.49,42.49h8.43
		C170.34,139.44,170.17,119.13,154.93,93.92z"/>
	<path class="st1" d="M11.54,17.35l10.6,2.97c1.61-2.01,2.58-4.55,2.58-7.33c0-0.24-0.02-0.48-0.04-0.72L13.81,9.23L11.54,17.35z"/>
</g>
<g>
	<path class="st2" d="M221.3,271.33l2.27-8.12l-10.51-2.94c-1.47,1.96-2.35,4.38-2.35,7.01c0,0.38,0.02,0.75,0.06,1.11l10.53,2.95
		V271.33z"/>
	<path class="st2" d="M209.45,267.28c0-2.74,0.86-5.27,2.31-7.37l-23.11-6.46c-32.9-10.68-77.1-31.61-100.96-70.67
		C73.46,159.5,73.2,140.47,73.2,140.29h-8.43c0,0.85,0.17,21.16,15.41,46.37c25.15,41.6,71.5,63.66,105.95,74.84l23.36,6.54
		C209.47,267.78,209.45,267.53,209.45,267.28z"/>
</g>
<g>
	<path class="st1" d="M81.16,232.97c-23.25-13.28-40.35-31.67-50.9-54.82c-9.01-19.74-9.62-35.74-9.62-35.85
		c-0.55-28.7,9.56-53.09,30.04-72.5c15.44-14.63,31.31-20.81,31.48-20.87l9.96-3.83l-3.03-7.87l-9.94,3.82
		c-0.7,0.27-17.37,6.71-34.02,22.39c-15.42,14.53-33.66,40.04-32.92,79.06c0.02,0.71,0.61,17.56,10.21,38.78
		c7.92,17.52,23.62,41.1,54.13,58.74C77.27,237.19,78.92,234.72,81.16,232.97z"/>
	<polygon class="st1" points="87.59,245.83 87.59,245.83 87.59,245.83 	"/>
	<path class="st1" d="M77.68,240.68c3.15,1.78,6.45,3.51,9.91,5.15l3.62-7.62c-3.04-1.44-5.98-2.98-8.84-4.58
		C80.03,235.29,78.32,237.78,77.68,240.68z"/>
</g>
</svg>
