<?xml version="1.0" encoding="utf-8"?>
<!-- Generator: Adobe Illustrator 28.3.0, SVG Export Plug-In . SVG Version: 6.00 Build 0)  -->
<svg version="1.1" id="Layer_2_00000157996830402619471060000003924904299497556897_"
	 xmlns="http://www.w3.org/2000/svg" xmlns:xlink="http://www.w3.org/1999/xlink" x="0px" y="0px" viewBox="0 0 1280 320.6"
	 style="enable-background:new 0 0 1280 320.6;" xml:space="preserve">
<style type="text/css">
	.st0{fill:#39546E;}
</style>
<g>
	<path class="st0" d="M1232.6,127.8l-38.5,120.1L1150,127.8h-33l-44.1,120.1l-38.5-120.1h-45.2l67.2,185h33l44.1-120.1l44.1,120.1
		h34.1l67.2-185H1232.6L1232.6,127.8z M460.6,198.3c6.6-24.2,24.2-39.7,49.6-39.7s44.1,16.5,47.4,39.7H460.6z M512.3,124.5
		c-52.9,0-95.8,41.9-95.8,95.8s41.9,96.9,95.8,96.9c45.2,0,80.4-25.3,87-65h-41.9c-3.3,15.4-22,26.4-44.1,26.4
		c-31.9,0-50.7-18.7-55.1-48.5h142.1c1.1-3.3,1.1-8.8,1.1-14.3C602.6,163,561.9,124.5,512.3,124.5 M257.9,198.3
		c6.6-24.2,24.2-39.7,49.6-39.7c25.3,0,44.1,16.5,47.4,39.7H257.9z M309.7,124.5c-52.9,0-95.8,41.9-95.8,95.8s41.9,96.9,95.8,96.9
		c45.2,0,80.4-25.3,87-65h-41.9c-3.3,15.4-22,26.4-44.1,26.4c-31.9,0-50.7-18.7-55.1-48.5h142.1c1.1-3.3,1.1-8.8,1.1-14.3
		C400,163,359.2,124.5,309.7,124.5z M1232.6,127.8l-38.5,120.1L1150,127.8h-33l-43,120.1l-38.5-120.1h-45.2l67.2,185h33l44.1-120.1
		l44.1,120.1h34.1l67.2-185H1232.6L1232.6,127.8z M460.6,198.3c6.6-24.2,24.2-39.7,49.6-39.7s44.1,16.5,47.4,39.7H460.6z
		 M512.3,124.5c-52.9,0-95.8,41.9-95.8,95.8s41.9,96.9,95.8,96.9c45.2,0,80.4-25.3,87-65h-41.9c-3.3,15.4-22,26.4-44.1,26.4
		c-31.9,0-50.7-18.7-55.1-48.5h142.1c1.1-3.3,1.1-8.8,1.1-14.3C602.6,163,561.9,124.5,512.3,124.5 M257.9,198.3
		c6.6-24.2,24.2-39.7,49.6-39.7c25.3,0,44.1,16.5,47.4,39.7H257.9z M309.7,124.5c-52.9,0-95.8,41.9-95.8,95.8s41.9,96.9,95.8,96.9
		c45.2,0,80.4-25.3,87-65h-41.9c-3.3,15.4-22,26.4-44.1,26.4c-31.9,0-50.7-18.7-55.1-48.5h142.1c1.1-3.3,1.1-8.8,1.1-14.3
		C400,163,359.2,124.5,309.7,124.5z M876.9,276.5c-31.9,0-56.2-25.3-56.2-56.2c0-31.9,24.2-56.2,56.2-56.2s56.2,24.2,56.2,56.2
		S908.8,276.5,876.9,276.5z M974.9,265.4V127.8h-41.9v33c-13.2-23.1-36.3-36.3-65-36.3c-49.6,0-88.1,43-88.1,95.8
		s39.7,96.9,88.1,96.9c29.7,0,51.8-13.2,65-36.3c5.5,16.5,19.8,33,47.4,33H998v-37.4h-9.9C984.8,276.5,976,276.5,974.9,265.4
		 M658.8,178.4c0-12.1,12.1-18.7,28.6-18.7c19.8,0,31.9,9.9,34.1,23.1h41.9c-4.4-37.4-37.4-58.4-76-58.4c-43,0-70.5,24.2-70.5,57.3
		c0,70.5,106.8,38.5,106.8,78.2c0,13.2-12.1,22-33,22c-20.9,0-36.3-11-38.5-26.4h-40.8c3.3,39.7,35.2,62.8,81.5,62.8
		c40.8,0,71.6-25.3,71.6-58.4C766.7,181.7,658.8,215.9,658.8,178.4 M876.9,276.5c-31.9,0-56.2-25.3-56.2-56.2
		c0-31.9,24.2-56.2,56.2-56.2s56.2,24.2,56.2,56.2S908.8,276.5,876.9,276.5z M974.9,265.4V128.9h-41.9v33
		c-13.2-23.1-36.3-36.3-65-36.3c-49.6,0-88.1,43-88.1,95.8s39.7,96.9,88.1,96.9c29.7,0,51.8-13.2,65-36.3c5.5,16.5,19.8,33,47.4,33
		H998v-37.4h-9.9C984.8,276.5,976,276.5,974.9,265.4 M658.8,178.4c0-12.1,12.1-18.7,28.6-18.7c19.8,0,31.9,9.9,34.1,23.1h41.9
		c-4.4-37.4-37.4-58.4-76-58.4c-43,0-70.5,24.2-70.5,57.3c0,70.5,106.8,38.5,106.8,78.2c0,13.2-12.1,22-33,22
		c-20.9,0-36.3-11-38.5-26.4h-40.8c3.3,39.7,35.2,62.8,81.5,62.8c40.8,0,71.6-25.3,71.6-58.4C766.7,181.7,658.8,215.9,658.8,178.4"
		/>
	<path class="st0" d="M158.8,136.6L158.8,136.6L158.8,136.6z"/>
	<path class="st0" d="M158.8,136.6L158.8,136.6L158.8,136.6z"/>
	<path class="st0" d="M116.9,62.8h2.2c2.2,0,4.4,1.1,5.5,1.1c0,0,4.4,1.1,9.9,3.3c5.5,2.2,13.2,6.6,17.6,13.2
		c1.1,1.1,2.2,3.3,3.3,5.5l0,0c1.1,2.2,1.1,4.4,1.1,6.6c-2.2,6.6-8.8,8.8-16.5,6.6c-27.5-6.6-39.7-38.5-39.7-38.5
		C105.9,61.7,112.5,61.7,116.9,62.8 M194,198.3c-24.2-61.7-152-37.4-148.7-94.7c1.1-13.2,8.8-25.3,20.9-31.9
		c12.1,34.1,39.7,62.8,81.5,66.1c4.4,0,8.8,0,12.1-1.1c18.7-3.3,33-20.9,35.2-37.4c3.3-38.5-33-62.8-58.4-68.3
		c-23.1-5.5-41.9-3.3-43-3.3C90.5,18.7,90.5,7.7,90.5,0H51.9c0,11,1.1,24.2,3.3,36.3C26.6,49.6,7.9,74.9,5.7,105.7
		c-6.6,104.6,160.8,55.1,153.1,135.5c-2.2,11-7.7,18.7-14.3,24.2C111.4,294.1,42,280.9,43.1,217h-43
		c-5.5,104.6,130,138.8,186.1,61.7C203.9,251.1,205,222.5,194,198.3"/>
</g>
</svg>
