<?xml version="1.0" encoding="utf-8"?>
<!-- Generator: Adobe Illustrator 27.9.0, SVG Export Plug-In . SVG Version: 6.00 Build 0)  -->
<svg version="1.1" id="Layer_1" xmlns="http://www.w3.org/2000/svg" xmlns:xlink="http://www.w3.org/1999/xlink" x="0px" y="0px"
	 viewBox="0 0 57 57" style="enable-background:new 0 0 57 57;" xml:space="preserve">
<style type="text/css">
	.st0{fill:#3774CD;}
</style>
<path class="st0" d="M28.5,0C12.8,0,0,12.8,0,28.5S12.8,57,28.5,57S57,44.2,57,28.5S44.2,0,28.5,0z M14.5,42C12,42,10,40,10,37.5
	c0-1.1,0.4-2.3,1.2-3.1c4.4-4.4,9.5-9.3,9.5-9.3c0.9-1,0.9-2.6-0.1-3.6c-1-0.9-2.6-0.9-3.6,0.1c-0.4,0.5-0.7,1.2-0.7,1.9H9.9
	c0-2.4,0.9-4.7,2.6-6.4c1.7-1.8,4-2.7,6.4-2.7c4.9,0,8.8,4,8.8,8.9c0,2.3-0.9,4.6-2.6,6.3c-3.5,3.5-6.3,6-6.3,6h9.3
	c0.2,0.4,0.3,0.9,0.5,1.3c0.5,1.2,1.2,2.3,2.2,3.2c0.7,0.7,1.6,1.4,2.6,1.9H14.5z M46.6,33c0,4.9-4,8.9-8.9,8.9
	c-4.9,0-8.9-4-8.9-8.9V14.5h6.4v18.8c0,1.4,1.1,2.6,2.6,2.6c1.4,0,2.5-1.1,2.6-2.6V14.5h6.4L46.6,33z"/>
</svg>
