<?xml version="1.0" encoding="UTF-8"?>
<svg id="a" data-name="Layer 1" xmlns="http://www.w3.org/2000/svg" viewBox="0 0 1195.98 1269.12">
  <defs>
    <style>
      .b {
        fill: #22a358;
        stroke-width: 0px;
      }
    </style>
  </defs>
  <path class="b" d="m1187.67,583.37c-7-13.25-17.8-20.39-33.04-19.95-15.71.46-28.84,7.53-40.89,16.81-18.16,13.98-32.78,31.4-44.84,50.63-15.38,24.51-29.99,49.55-43.95,74.9-30.45,55.26-54.63,113.25-73.42,173.49-.73,2.33-1.85,4.66-3.3,6.61-13.08,17.57-27.75,33.67-44.84,47.44-11.99,9.66-24.62,18.27-39.59,22.75-15.51,4.64-28.04.72-33.83-11.82-3.38-7.33-4.78-15.57-7.08-23.4.59-.24,1.17-.48,1.76-.71,1.07,1.18,2.14,2.36,3.21,3.53,8.79,9.56,19.27,13.18,32.02,9.35,11.04-3.32,19.89-10.03,27.81-18,21.93-22.08,36.44-48.62,45.92-78.02,5.29-16.42,8.5-33.16,6.11-50.61-2.91-21.34-19.02-35.79-40.53-35.73-16.61.04-30.61,7.28-43.47,16.87-27.57,20.56-47.29,47.59-62.61,77.98-12.97,25.73-21.2,52.85-20.37,81.94.22,7.61-1.88,12.45-8.02,16.46-13.77,9-27.28,18.41-41.09,27.35-1.97,1.28-5.04.85-7.61,1.2.2-2.5-.16-5.23.7-7.48,9.44-24.53,18.68-49.15,28.75-73.43,21.94-52.88,44.38-105.56,66.44-158.4,1.66-3.96,3.46-4.73,7.44-3.72,5.47,1.38,11.13,1.99,16.72,2.86,26.14,4.07,52.1,9.52,78.82,8.52,22.32-.83,44.11-4.13,64.62-13.36,28.26-12.73,48.94-32.77,57.4-63.29,6.58-23.73,5.05-46.85-10.86-66.85-14.34-18.04-33.87-27.79-56.6-30.52-22.77-2.74-43.07,2.9-58.88,20.43-11.43,12.68-16.91,28.17-18.98,44.81-1.2,9.59-1.31,19.31-1.92,28.98.54.1,1.09.2,1.63.31,1.08-1.61,1.99-3.36,3.27-4.8,5.6-6.31,10.89-12.98,17.1-18.63,5.39-4.9,12.43-7.47,19.85-6.69,16.32,1.72,22.93,18.11,13.23,32.28-6.83,9.98-17.03,15.2-27.97,19.1-19.9,7.1-40.65,8.44-61.54,8.33-7.95-.04-15.9-.52-24.42-.81.75-2.16,1.15-3.55,1.71-4.88,6.22-14.72,12.59-29.38,18.68-44.15,6.09-14.76,12.06-29.57,17.77-44.48,2.34-6.12.24-8.88-6.24-9.05-2.97-.08-6.12-.11-8.92.73-14.16,4.25-28.18,8.96-42.36,13.14-5.67,1.67-8.57,5.26-10.94,10.42-10.34,22.53-21.07,44.89-31.57,67.36-1.11,2.38-2.16,3.69-5.16,3.27-13.01-1.81-26.04-3.58-39.09-5-58.92-6.4-117.8-13.2-176.8-18.84-43.97-4.2-88.11-5.23-132.28-3.04-35.35,1.75-70.31,5.83-104.27,16.33-2.44.75-4.12,1.08-5.92-1.48-6.19-8.79-14.81-14.23-25.17-16.88-14.39-3.68-28.8-2.57-43.06.63-30.54,6.85-58.49,20.01-85.25,35.84-75.93,44.94-125.33,109.66-144.92,196.14-6.85,30.22-9.99,60.85-3.51,91.63,8.75,41.58,31.61,72.83,70.42,90.7,45.66,21.02,91.98,19.96,137.1-1.52,35.02-16.68,57.57-43.94,63.15-83.52,4.56-32.35-21.49-56.79-53.35-49.11,0,3.29.05,6.74,0,10.2-.41,23.39-6.02,45.2-20.36,64.09-14.09,18.56-32.76,29.61-56.27,29.58-24.69-.03-43.11-12.22-55.41-33.44-13.57-23.39-15.11-49.03-12.73-75.08,2.81-30.75,11.66-60.03,23.69-88.34,20.17-47.45,48.84-88.94,88.14-122.62,15.38-13.18,32.07-24.47,52.22-29.34,8.69-2.1,17.33-2.51,25.86,1.17-11.53,7.98-22.99,15.14-33.59,23.41-15.42,12.04-28.32,26.35-34.4,45.53-9.47,29.88,10.34,55.49,41.31,53.11,15.51-1.19,28.12-9.08,38.72-19.93,23.03-23.57,35.33-52.04,37.39-84.9.17-2.75.81-4.17,3.61-4.87,26.08-6.53,52.57-10.77,79.37-11.95,28.94-1.28,57.97-2.24,86.9-1.35,34.27,1.06,68.56,3.43,102.69,6.76,36.44,3.55,72.72,8.73,109.03,13.49,17.78,2.33,35.47,5.34,53.88,8.14-3.26,7.14-6.29,13.75-9.29,20.38-25.99,57.48-52.2,114.87-74.52,173.91-6.52,17.24-13.53,34.41-14.86,53.15-.08,1.07-1.13,2.56-2.11,2.99-8.04,3.53-15.96,7.58-24.34,10.06-9.04,2.68-12.85-.84-10.38-9.9,5.33-19.53,10.84-39.09,17.78-58.08,8.8-24.05,19.43-47.42,28.62-71.33,5.37-13.97,9.8-28.38,8.89-43.7-.67-11.25-7.11-16.59-18.26-15.11-17.25,2.3-32.84,9.1-46.34,19.75-11.25,8.87-21.44,19.09-32.06,28.76.06-.2.1-.42.14-.64,1.84-9.67,3.59-19.34,1.46-29.22-2.03-9.41-8.07-14.41-17.57-14.34-10.09.07-18.73,4.4-26.84,9.75-26.75,17.64-43.75,41.11-43.72,74.49.02,15.85,9.5,23.57,25.1,20.52,2.61-.51,5.14-1.4,7.72-2.04,1-.25,2.04-.31,3.64-.54-.69,1.34-1.04,2.08-1.44,2.78-11.58,20.34-25.36,39.16-40.66,56.78-9.79,11.28-20.45,21.88-31.32,32.14-5.46,5.15-9.05,3.15-9.88-4.44-.11-.99-.14-2-.15-2.99-.12-17.08,3.62-33.37,10.39-48.96,3.75-8.64,2.34-13.04-6.87-15.04-7.89-1.71-16.14-1.75-24.21-2.71-4.27-.51-7.03,1.18-9.78,4.41-17.08,20.02-34.24,39.97-51.67,59.68-4.14,4.69-9.04,8.9-14.21,12.42-5.54,3.77-9.66,1.51-10.36-5.23-.43-4.11-.5-8.4.17-12.45,4.77-28.93,14.84-55.92,30.86-80.5,7.09-10.88,16.31-19.83,28.12-25.64,9.75-4.8,18.77-2.48,24.95,6.5,2.52,3.66,4.35,7.84,6.23,11.9,2.82,6.11,6.74,10.81,13.95,11.23,7.27.43,12.77-3,15.69-9.41,3.64-7.98,7.5-16.09,9.45-24.56,3.92-17.04.73-32.58-13.88-43.98-12.14-9.47-26.37-10.9-40.87-8.63-25.91,4.06-46.33,17.99-62.84,37.73-30.07,35.95-49.56,77.13-58.77,123.03-3.43,17.07-4.35,34.38.7,51.46,6.82,23.06,27.35,34.31,50.28,27.63,13.65-3.97,24.64-12.25,35.09-21.41,7.22-6.33,14.38-12.73,20.66-18.29,1.38,3.63,3.09,9.41,5.7,14.74,6.6,13.46,17.63,18.65,31.84,13.77,8.68-2.98,17.21-7.32,24.75-12.57,24.41-17,44.45-38.76,62.57-62.06,17.46-22.46,33.18-46.25,50.21-69.05,8.94-11.97,18.87-23.24,28.77-34.46,2.74-3.11,6.97-4.92,10.51-7.33.48.48.95.96,1.43,1.44-1.1,2.3-2.01,4.71-3.31,6.89-16.56,27.82-30.66,56.81-41.6,87.3-5.54,15.45-9.63,31.13-8,47.82,1.7,17.37,13.23,29.47,30.39,32.07,14.23,2.16,27.6-.83,40.28-6.76,10.81-5.06,21.13-11.17,31.93-16.96.46.6,1.14,1.51,1.85,2.4.84,1.04,1.63,2.12,2.57,3.06,13.23,13.35,29.49,15.02,46.79,11.64,22.42-4.39,40.86-16.47,57.86-31.07,4.84-4.16,9.41-8.64,14.37-13.23,5.8,9.48,13.09,16.88,22.65,21.81,17.37,8.96,35.6,9.07,53.99,4.37,28.86-7.37,51.95-24.2,72.23-45.33,4.74-4.94,9.14-10.21,14.44-16.17-2.18,31.7,6.9,58.89,25.7,84.37-12.22,6.76-23.61,14.05-35.78,19.63-42.4,19.43-87.67,25.93-133.72,26.77-31.78.58-63.62-.94-95.42-1.91-53.94-1.65-107.86-4.13-161.82-5.25-38.13-.79-76.31-.31-114.46.3-52.17.83-104.15,4.48-155.52,14.22-34.47,6.53-68.07,15.91-98.94,33.23-35.03,19.65-59.7,47.61-68.68,87.61-2.22,9.88-3.06,20.07-4.54,30.12.54.14,1.09.27,1.63.41,7.9-11.71,17.85-21.4,29.14-29.71,11.39-8.38,23.4-15.46,36.96-16.5-2.44,2.89-5.53,5.96-7.92,9.49-14.43,21.3-21.57,44.84-20.7,70.6.14,4.06,1.87,8.06,3.13,13.17,1.71-1.97,2.37-2.68,2.97-3.43,13.83-17.26,29.71-32.38,47.69-45.27,41.08-29.46,87.59-45.93,136.41-56.76,54.18-12.01,109.25-16.89,164.55-18.73,51.44-1.72,102.93-2.31,154.4-2.92,54.82-.65,109.61-1.53,164.1-8.29,34.78-4.31,69.01-11.02,101.45-24.92,36.93-15.83,65.87-39.92,81.17-78.24.53-1.34,2.77-2.72,4.29-2.81,5.31-.31,10.66.08,15.99-.03,13.43-.28,26.57-2.15,38.78-8.13,21.16-10.36,27.88-31.57,16.25-52.01-6.88-12.09-16.61-20.32-31.52-20.17-13.07.12-21.51,7.95-28.59,17.61-3.38,4.61-5.98,9.81-9.22,15.23-1.53-2.16-2.97-3.96-4.16-5.91-8.98-14.67-9.97-30.83-8.38-47.32,2.3-23.78,9.64-46.19,19.47-67.82,1.15-2.52,3.79-5.11,6.35-6.13,67.15-26.59,118.98-70.59,153.05-134.65,14.52-27.31,24.21-56.22,25.79-87.39.84-16.43-.14-32.68-8.06-47.67Zm-345.37,292.43c.04-11.58,3.75-22.24,8.52-32.55,7.19-15.53,16.11-29.91,29.53-40.92,3.03-2.49,6.61-4.56,10.26-5.99,5.73-2.25,10.26.27,11.9,6.22,2.71,9.84-.12,19.22-3.24,28.32-6.4,18.64-16.08,35.42-30.5,49.12-3.22,3.06-6.9,5.82-10.81,7.92-8.69,4.66-15.14.75-15.66-9.12-.05-1,0-2,0-3Zm-619.82-104.63c.24-12.94,27.04-41.23,50.1-50.41-6.72,17.93-39.41,50.58-50.1,50.41Zm804.98,211.64c1.14-1.48,3.82-2.96,5.36-2.6,1.55.36,3.4,2.92,3.63,4.7.44,3.5.61,7.39-.48,10.66-2.43,7.36-9.29,7.66-17.39.58,3-4.6,5.67-9.18,8.88-13.35Zm132.03-368.4c-.64,7.43-.96,15.04-2.93,22.17-14.7,53.35-39.39,101.29-78.4,141.15-13.77,14.07-29.72,25.12-48.4,31.87-.87.31-1.77.52-3.78,1.11,1.88-5.2,3.29-9.56,5.02-13.78,15.76-38.5,36.49-74.34,59-109.19,15-23.24,30.74-45.96,49.7-66.22,3.74-3.99,7.97-7.55,12.23-11,1.37-1.11,4.26-2.22,5.19-1.55,1.42,1.01,2.54,3.63,2.39,5.45Z"/>
  <path class="b" d="m1106.4,476.15c14.83-4.63,25.73-14.59,34.35-26.96,19.13-27.45,30.2-58.08,33.58-91.29,1.53-15.02.61-30.05-7.53-43.56-5.85-9.7-14.27-14.95-25.89-14.99-14.91-.05-28.05,5.07-40.16,13.24-21.44,14.48-36.16,34.68-47.77,57.33-16.22,31.63-25.17,65.52-29.21,100.61-1.6,13.93-9.39,22.69-19.6,30.19-6.43,4.72-12.24,3.02-16.18-4.09-1.75-3.17-3.07-6.67-4.02-10.17-3.53-12.99-6.66-26.09-10.27-39.06-2.95-10.63-8.09-19.58-21.1-22.19,14.09-7.28,26.08-15.6,36.28-26.3,14.18-14.87,24.79-31.69,28.34-52.32,4.17-24.22-10.24-40.82-34.82-40.33-9.34.19-18.07,2.61-26.46,6.48-3.33,1.54-6.58,3.25-10.41,5.15.38-1.15.41-1.52.6-1.75.76-.89,1.55-1.74,2.36-2.58,27.16-27.97,50.89-58.53,70-92.58,13.93-24.8,26.4-50.12,27.79-79.34.72-15.23-1.34-29.91-8.41-43.59-8.85-17.13-24.08-25.54-40.64-22.34-11.77,2.27-21.01,9.07-28.92,17.66-13.62,14.79-24.42,31.64-34.22,49.08-34.35,61.13-58.45,126.39-77.56,193.63-.49,1.73-.88,3.73-2.01,5-6.88,7.78-15.31,13.53-24.91,18.68,0-6.21.34-11.7-.07-17.13-.85-11.29-7.04-19.29-16.38-21.43-9.09-2.09-16.78,1.41-23.54,6.99-14.86,12.27-19.77,29.19-20.86,47.47-.75,12.58,1.8,24.23,12.79,32.47.86.64,1,3.04.63,4.38-1.38,4.96-3.08,9.83-4.71,14.71-8.18,24.48-16.78,48.85-30.15,71.05-4.55,7.55-10.34,14.92-17.15,20.4-9.7,7.79-22.81,2.11-25.49-10.06-.85-3.85-1.18-7.94-.99-11.88.85-18.6,6.64-36.01,14.55-52.58,12.39-25.98,25.88-51.45,38.23-77.45,4.82-10.15,8.45-20.99,11.43-31.84,3.16-11.47-3.65-17.8-15.3-14.65-5.37,1.45-10.66,3.9-15.39,6.85-13.17,8.22-23.57,19.5-32.87,31.78-27.17,35.84-42.01,76.8-49.73,120.67-1.24,7.04-.2,15.27-3.57,20.96-5.59,9.41-13.58,17.52-21.22,25.54-3.42,3.59-7.08,1.66-7.03-3.51.05-4.41.85-8.95,2.15-13.18,12.33-40.05,25-80,37.19-120.1,4.4-14.46,8.03-29.1,8.84-44.43.84-15.88-19.62-32.72-35.36-28.65-12.76,3.3-23.92,9.23-33.93,17.35-8.61,6.99-16.56,14.79-24.41,21.88.55-3.63,1.45-7.98,1.82-12.37,1.08-12.64-5.43-21.71-17.79-24.54-16.57-3.79-30.98,1.48-43.82,11.59-9,7.09-17.51,14.81-25.01,21.2,1.3-7.77,3.59-16.81,4.14-25.96.55-9.17-5.36-13.59-14.51-12.48-7.58.92-14.22,4.14-19.22,9.72-5.87,6.54-12.26,13.07-16.24,20.74-9.09,17.53-17.19,35.61-25.07,53.73-18.28,42-32.62,85.44-45.78,129.26-4.37,14.54-7.38,29.38-6.25,44.77,1.32,17.79,12.65,27.32,29.81,24.35,5.5-.95,10.9-2.99,16.09-5.14,6.29-2.6,10.26-5.57,10.97-14.47,2.36-29.76,9.04-59.02,19.86-86.79,10.01-25.68,22.06-50.65,34.56-75.24,7.88-15.5,18.14-29.8,27.6-44.46,1.88-2.92,4.96-5.07,7.48-7.57-2.67,12.41-6.44,24.06-9.99,35.78-13.95,45.98-28.87,91.74-36.66,139.31-1.39,8.51-1.38,17.68.21,26.13,2.09,11.08,10.71,17.09,21.59,18.65,12.22,1.74,23.2-1.28,31.24-11.46.86-1.08,1.21-2.72,1.4-4.15,1.71-13.04,3-26.13,5.03-39.12,5.8-37.02,14.79-73.08,33.79-105.91,10.49-18.12,22.33-35.19,39.2-48.08,3.58-2.74,7.69-4.8,11.55-7.17.3.34.6.68.89,1.02-1.29,3.36-2.55,6.73-3.87,10.08-13.89,35.11-27.49,70.33-37.16,106.91-5.51,20.81-10.13,41.77-8.56,63.55,1.1,15.25,7.93,24.8,19.96,26.95,5.17.92,10.63,1.18,15.87.69,17.12-1.58,31.16-10.1,43.94-20.9,5.42-4.59,10.35-9.76,15.73-14.87.99,1.6,1.8,3.02,2.71,4.38,11.36,16.97,26.73,26.07,47.64,24.21,10.29-.91,19.8-4.32,28.7-9.45,18.17-10.47,30.93-26.16,41.29-43.91,19.15-32.8,29.4-68.64,35.28-105.9.27-1.69.76-3.96,1.96-4.79,6.49-4.51,13.24-8.65,20.95-13.59-.86,2.59-1.33,3.95-1.77,5.31-11.43,35.63-23.19,71.19-29.81,108.13-2.58,14.37-3.32,28.88,2.53,42.8,3.52,8.37,9.23,14.49,18.56,16.62,14.63,3.34,34.36-7.06,42.1-22.5-6.08-1.71-8.64-6.43-9.56-12.08-.72-4.41-1.37-8.98-.98-13.39,4.11-46.69,20.14-89,47.73-126.83,10.69-14.66,23.46-27.36,40.01-35.41,3.21-1.56,8.07-2.05,11.24-.75,4.1,1.67,3.77,6.73,3.11,10.7-3.46,20.79-14.08,37.41-30.04,50.86-2.85,2.41-5.7,3.02-9.59,2.37-20.3-3.4-36.19,14.16-30.49,33.36,2.81,9.46,10.92,13.23,19.51,8.37,4.55-2.58,8.44-6.4,12.4-9.91,1.8-1.6,3.06-3.82,4.57-5.75.67.16,1.34.33,2.01.49,1.44,3.4,3.62,6.69,4.2,10.23,2.05,12.47,3.57,25.03,5.25,37.56,2.01,15.03,3.92,30.11,11.28,43.73,7,12.94,17.6,17.52,31.84,14.03,13.61-3.33,24.75-11.25,35.72-19.43,4.06-3.03,7.96-6.29,12.21-9.67.82,1.89,1.36,3.26,2.01,4.57,7.73,15.73,20.02,25.61,37.47,28.22,18.68,2.8,36.28-1.29,52.25-10.96,28.3-17.14,42.69-43.89,50.08-75.11.52-2.21.35-4.67.13-6.97-1.03-11.04-11.02-16.73-21.1-12.03-7.36,3.44-11.65,9.68-14.96,16.77-1.69,3.62-3.21,7.32-5.09,10.84-6.26,11.72-13.64,22.51-25.49,29.43-10.96,6.4-22.04,4.13-28.72-6.34-6.27-9.85-7.3-20.96-7.38-33.07,9.99,13.01,21.48,16.63,36.58,11.91Zm-14.98-68.84c5.99-20.55,16.05-39.05,31.47-54.24,2.33-2.3,5.16-4.27,8.09-5.74,6.07-3.05,10.44-.6,11.44,6.1.27,1.8.19,3.65.27,5.48.37.11.74.22,1.11.33-2.4,8.59-4.29,17.37-7.3,25.74-5.57,15.46-13.51,29.72-24.71,41.86-3.55,3.85-7.82,7.31-12.35,9.9-5.56,3.18-10.61.85-10.75-5.46-.17-7.99.49-16.35,2.72-23.99Zm-179.71-97.08c-.78.75-1.76,1.31-3.91,2.88,3.59-9.22,6.6-17.08,9.71-24.89,16.72-42.08,34.36-83.75,56.23-123.47,8.51-15.45,17.22-30.9,30.21-43.21,3.6-3.41,8.11-5.84,12.21-8.72.64.39,1.27.77,1.91,1.16,0,8.04.81,16.18-.14,24.11-3.55,29.57-16.43,55.66-31.66,80.67-20.64,33.88-46.01,63.99-74.55,91.48Z"/>
  <path class="b" d="m721.78,183.01c17.59,1.09,35.28,1.82,52.66,4.5,16.77,2.59,31.8.7,45.21-9.97,17.86-14.21,18.13-33.96.92-48.89-12.5-10.84-27.72-16.3-42.79-22.11-8-3.09-15.99-6.23-23.98-9.34,0-.58.02-1.16.02-1.74,2.6-1.25,5.16-2.58,7.81-3.73,8.69-3.79,17.63-7.09,26.01-11.45,3.47-1.8,5.78-5.83,8.61-8.84-3.06-2.58-5.73-6.02-9.24-7.58-9.71-4.31-19.91-7.52-29.62-11.83-3.36-1.49-5.83-4.96-8.71-7.53,2.68-2.75,5.07-5.87,8.1-8.17,4.62-3.51,10.02-6.03,14.44-9.75,5.08-4.27,4.97-10.49-.05-14.76-9.62-8.2-21.55-9.8-34.45-11.82,2.5,2.57,4.48,3.99,5.61,5.91,1.61,2.72,3.94,6.09,3.4,8.64-.39,1.82-4.87,3.36-7.74,3.93-7.01,1.39-14.19,1.9-21.22,3.22-9.44,1.78-18.38,4.88-25.02,12.41-8.19,9.3-6.95,17.41,4.05,22.94,6.05,3.04,12.7,4.89,19.05,7.35,1.92.74,3.74,1.75,6.52,3.06-1.93,1.31-2.7,2.23-3.58,2.36-5.73.82-11.47,1.56-17.22,2.14-9.75.99-19.65,1.09-29.22,2.96-8.91,1.74-14.29,8.17-15.68,17.37-1.34,8.88,3.23,15.02,10.5,18.67,8.27,4.16,16.93,7.79,25.77,10.54,13.48,4.2,27.29,7.34,40.88,11.18,2.97.84,5.88,2.41,8.39,4.24,3.02,2.19,2.61,5.01-.73,6.56-1.61.74-3.53,1.21-5.29,1.14-9.14-.38-18.27-.97-27.4-1.49-18.1-1.04-36.2-2.71-54.31-2.93-13.02-.16-25.9,2.33-37.36,9.33-22.56,13.79-25.12,41.22-4.61,57.7,9.76,7.85,20.57,15.11,32.02,19.99,24.46,10.42,49.72,18.95,74.51,28.6,9.11,3.54,18.06,7.65,26.64,12.31,4.88,2.65,4.66,6.85-.42,8.95-6.83,2.83-14.05,5.39-21.33,6.33-16.66,2.16-32.8-1.62-48.67-6.39-36.28-10.91-70.65-26.67-105.37-41.54-31.08-13.31-62.39-26.03-95.55-33.28-13.93-3.04-28.09-5-41.44-7.32-2.72-11.31-4.66-22.84-8.32-33.8-6.53-19.55-18.11-35.56-36.84-45.36-14.51-7.59-30.05-9.14-46.15-7.18-28.53,3.48-50.44,16.95-64.48,42.37-12.23,22.13-16.46,46.36-17.36,71.16-2.15,59.54,9.84,116.8,29.06,172.82,6.25,18.23,13.06,36.34,17.9,54.95,6.53,25.15,7.18,50.71-.32,75.99-10.22,34.45-38.87,58.87-72.25,61.63-59.3,4.9-92.28-48.79-89.06-90.2,1.8-23.2,10.67-43.82,22.22-63.49,6.15-10.48,13.02-20.53,19.2-31,9.35-15.86,3.84-34.06-12.69-42.3-12.79-6.37-25.84-5.66-38.65-.24-18.32,7.75-30.7,22.02-40.4,38.73-16.48,28.39-25.11,59.41-28.47,91.82-6.19,59.66,20.59,113.17,77.03,139.1,51.98,23.88,103.8,20.8,153.38-7.38,32.91-18.7,57.27-45.5,68.38-82.59,8.58-28.66,6.91-57.59,1.01-86.49-6.15-30.12-16.75-58.84-27.88-87.37-12.24-31.36-23.82-62.85-27.12-96.72-2.86-29.4-2.46-58.57,5.59-87.22,3.4-12.1,8.07-23.68,17.38-32.67,8.46-8.17,20.74-9.85,30.28-3.29,17.1,11.76,22.43,29.85,25.79,49.11-4.4.49-8.05.76-11.65,1.31-13.28,2.05-25.18,6.85-32.91,18.52-11.49,17.36-8.13,42.73,7.46,58.84,11.29,11.67,26.03,14.82,41.2,8.9,12.85-5.02,21.75-14.37,27.01-26.68,4.46-10.44,7.37-21.54,11.37-33.58,13.1,2.48,27.38,4.68,41.41,7.92,50.92,11.78,99.44,30.65,147.58,50.62,23.04,9.56,45.96,19.58,69.54,27.59,26.46,8.98,53.83,10.85,81.11,2.81,16.12-4.75,31.26-11.61,42.85-24.41,7.54-8.33,9.16-18.98,3.36-28.61-3.72-6.17-8.25-12.43-13.87-16.77-11.41-8.83-23.3-17.3-35.91-24.24-16.3-8.97-33.53-16.24-50.3-24.37-3.25-1.58-6.23-3.72-9.33-5.61.14-.79.29-1.59.43-2.38,4.43-.77,8.91-2.44,13.28-2.17Zm-344.33,57.02c-2.86,3.37-5.7,2.22-6.36-2.18-.68-4.55,1.28-8.23,5.09-10.47,3.15-1.85,6.75-2.94,10.15-4.37.6.65,1.2,1.29,1.79,1.94-3.52,5.06-6.71,10.41-10.68,15.09Z"/>
</svg>