<?xml version="1.0" encoding="utf-8"?>
<!-- Generator: Adobe Illustrator 26.5.0, SVG Export Plug-In . SVG Version: 6.00 Build 0)  -->
<svg version="1.1" id="Layer_1" xmlns="http://www.w3.org/2000/svg" xmlns:xlink="http://www.w3.org/1999/xlink" x="0px" y="0px"
	 viewBox="0 0 512 512" style="enable-background:new 0 0 512 512;" xml:space="preserve">
<style type="text/css">
	.st0{fill:#3667A1;}
</style>
<path class="st0" d="M231.7,377.6c9.7,9,24.9,8.4,33.9-1.2c9-9.7,8.5-24.9-1.2-33.9l-67.3-62.4H368c13.2,0,24-10.8,24-24
	c0-13.2-10.8-24-24-24H197.1l67.2-62.4c9.7-9.1,10.2-24.2,1.2-33.9c-9-9.7-24.2-10.2-33.9-1.2l-112,104c-4.8,4.6-7.6,10.9-7.6,17.6
	s2.8,13,7.7,17.6L231.7,377.6z M256,512c141.4,0,256-114.6,256-256S397.4,0,256,0S0,114.6,0,256S114.6,512,256,512z M256,48
	c114.7,0,208,93.3,208,208s-93.3,208-208,208S48,370.7,48,256S141.3,48,256,48z"/>
</svg>
