<?xml version="1.0" encoding="utf-8"?>
<!-- Generator: Adobe Illustrator 23.1.1, SVG Export Plug-In . SVG Version: 6.00 Build 0)  -->
<svg version="1.1" id="Layer_1" xmlns="http://www.w3.org/2000/svg" xmlns:xlink="http://www.w3.org/1999/xlink" x="0px" y="0px"
	 viewBox="0 0 90 90" style="enable-background:new 0 0 90 90;" xml:space="preserve">
<g>
	<path d="M45,89C20.74,89,1,69.26,1,45S20.74,1,45,1s44,19.74,44,44S69.26,89,45,89z M45,6.1C23.72,6.1,6.4,23.55,6.4,45
		c0,21.45,17.32,38.9,38.6,38.9c21.28,0,38.6-17.45,38.6-38.9C83.6,23.55,66.28,6.1,45,6.1z"/>
	<path d="M28.94,71.71c-5.31,0-11.21-3.06-13.67-9.23c-3.29-8.25,1.39-15.89,4.18-18.29c5.56-4.8,13.39-5.58,21.71-2.22
		c1.07-6.71,1.84-12.57,2.46-17.28c0.32-2.44,0.6-4.54,0.86-6.4l5.31,0.81c-0.26,1.82-0.54,3.91-0.85,6.33
		c-0.67,5.13-1.52,11.61-2.75,19.08c4.15,2.51,7.94,5.89,10.88,9.77c0.97,1.29,1.84,2.6,2.59,3.93l5.81-38.71l5.32,0.75L63.3,71.52
		l-5.35-0.35C57.91,64.64,53.53,56,45.19,50.33c-0.23,1.28-0.47,2.58-0.72,3.9c-0.92,4.81-2.82,14.81-12.55,17.14
		C30.97,71.6,29.96,71.71,28.94,71.71z M31.36,45.44c-3.27,0-6.17,0.99-8.46,2.97c-1.48,1.28-4.86,6.49-2.66,11.99
		c1.82,4.57,6.85,6.47,10.45,5.61c5.86-1.4,7.41-7.11,8.5-12.84c0.37-1.92,0.71-3.8,1.03-5.63C37.11,46.14,34.11,45.44,31.36,45.44z
		"/>
</g>
</svg>
