<?xml version="1.0" encoding="utf-8"?>
<!-- Generator: Adobe Illustrator 26.0.2, SVG Export Plug-In . SVG Version: 6.00 Build 0)  -->
<svg version="1.1" id="Layer_1" xmlns="http://www.w3.org/2000/svg" xmlns:xlink="http://www.w3.org/1999/xlink" x="0px" y="0px"
	 viewBox="0 0 90 90" enable-background="new 0 0 90 90" xml:space="preserve">
<g>
	<path fill="#2E2E2E" d="M45,89C20.7,89,1,69.3,1,45S20.7,1,45,1s44,19.7,44,44S69.3,89,45,89z M45,6.1C23.7,6.1,6.4,23.5,6.4,45
		S23.7,83.9,45,83.9S83.6,66.4,83.6,45S66.3,6.1,45,6.1z"/>
	<path fill="#2E2E2E" d="M28.9,71.7c-5.3,0-11.2-3.1-13.7-9.2c-3.3-8.2,1.4-15.9,4.2-18.3c5.6-4.8,13.4-5.6,21.7-2.2
		c1.1-6.7,1.8-12.6,2.5-17.3c0.3-2.4,0.6-4.5,0.9-6.4l5.3,0.8c-0.3,1.8-0.5,3.9-0.8,6.3c-0.7,5.1-1.5,11.6-2.8,19.1
		c4.2,2.5,7.9,5.9,10.9,9.8c1,1.3,1.8,2.6,2.6,3.9l5.8-38.7l5.3,0.8l-7.5,51.3L58,71.2c0-6.5-4.4-15.2-12.8-20.8
		c-0.2,1.3-0.5,2.6-0.7,3.9C43.5,59,41.6,69,31.9,71.4C31,71.6,30,71.7,28.9,71.7z M31.4,45.4c-3.3,0-6.2,1-8.5,3
		c-1.5,1.3-4.9,6.5-2.7,12c1.8,4.6,6.9,6.5,10.5,5.6c5.9-1.4,7.4-7.1,8.5-12.8c0.4-1.9,0.7-3.8,1-5.6C37.1,46.1,34.1,45.4,31.4,45.4
		z"/>
</g>
</svg>
