<?xml version="1.0" encoding="utf-8"?>
<!-- Generator: Adobe Illustrator 26.5.0, SVG Export Plug-In . SVG Version: 6.00 Build 0)  -->
<svg version="1.1" id="Layer_1" xmlns="http://www.w3.org/2000/svg" xmlns:xlink="http://www.w3.org/1999/xlink" x="0px" y="0px"
	 viewBox="0 0 90 90" style="enable-background:new 0 0 90 90;" xml:space="preserve">
<style type="text/css">
	.st0{fill:#3667A1;}
</style>
<g>
	<path class="st0" d="M37.2,74.1c-4.6,0-9.7-2.6-11.8-8C22.5,59,26.6,52.4,29,50.3c4.8-4.1,11.6-4.8,18.7-1.9
		c0.9-5.8,1.6-10.8,2.1-14.9c0.3-2.1,0.5-3.9,0.7-5.5l4.6,0.7c-0.2,1.6-0.5,3.4-0.7,5.5c-0.6,4.4-1.3,10-2.4,16.5
		c3.6,2.2,6.8,5.1,9.4,8.4c0.8,1.1,1.6,2.2,2.2,3.4l5-33.4l4.6,0.6l-6.5,44.3l-4.6-0.3c0-5.6-3.8-13.1-11-18
		c-0.2,1.1-0.4,2.2-0.6,3.4c-0.8,4.1-2.4,12.8-10.8,14.8C38.9,74,38,74.1,37.2,74.1z M39.3,51.4c-2.8,0-5.3,0.9-7.3,2.6
		c-1.3,1.1-4.2,5.6-2.3,10.3c1.6,3.9,5.9,5.6,9,4.8c5.1-1.2,6.4-6.1,7.3-11.1c0.3-1.7,0.6-3.3,0.9-4.9C44.2,52,41.6,51.4,39.3,51.4z
		"/>
	<path class="st0" d="M51,89c-20.9,0-38-17-38-38s17-38,38-38s38,17,38,38S72,89,51,89z M51,17.5c-18.4,0-33.3,15.1-33.3,33.6
		c0,18.5,14.9,33.6,33.3,33.6c18.4,0,33.3-15.1,33.3-33.6C84.3,32.5,69.4,17.5,51,17.5z"/>
	<g>
		<path class="st0" d="M10.3,67.7l-3.8,0.4C5.4,68.3,4.9,69,4.7,70l-0.4,0L3,66l0.4,0c0.8,1.2,1.6,1.6,3,1.4l1.3-0.1L6,62l-1.3,0.2
			c-1.2,0.1-1.8,0.9-1.9,2l-0.4,0l-1.3-4l0.4,0c0.8,1,1.5,1.5,2.9,1.3L8.1,61c1.2-0.1,1.7-0.8,1.9-1.8l0.4,0l1.3,4l-0.4,0
			c-0.9-1.2-1.6-1.6-3-1.4l-1.3,0.2l1.8,5.3L10,67c1.2-0.1,1.8-0.8,1.9-2l0.4,0l1.4,4.1L13.3,69C12.4,68,11.7,67.6,10.3,67.7z"/>
		<path class="st0" d="M7.6,58c-2.1,0.2-3.8-1.5-4-3.2c-0.1-1,0.3-1.9,0.9-2.4c-0.5-0.1-0.8-0.3-1.2-0.6l0-0.3l4.1,0.5
			c1,0.1,1.2-0.2,1.2-0.6c0-0.2-0.2-0.4-0.6-0.6l0.1-0.3c1,0.1,1.8,0.6,1.8,1.3c0,0.4-0.2,0.8-0.8,0.9c0.6,0.5,1,1.3,1,2
			C10.4,56.6,9.3,57.9,7.6,58z M9,54.8c-0.1-0.8-0.3-1.4-0.7-1.9l-2.6-0.3c-0.6,0.6-0.8,1.3-0.7,2.3c0.1,1.4,1.2,2.5,2.5,2.3
			C8.6,57.1,9.1,56.2,9,54.8z"/>
		<path class="st0" d="M9.5,44.5c-0.4,0-1-0.3-1.6-0.6c-0.6-0.2-1-0.4-1.4-0.4c-0.6-0.1-1.1,0.2-1.2,1.1c-0.1,0.7,0.2,1.8,0.6,2.6
			l1.6,0.5c1.1,0.4,1.8,0.1,2.2-0.6l0.4,0.1l-0.3,3.1l-0.4-0.1c-0.3-1-0.7-1.4-1.8-1.8L7,48.3c-1.1-0.4-1.7-0.1-2.3,0.4l-0.4-0.1
			l-0.6-1.9l0-0.4C4,46.4,4.5,46.7,5,46.9c-0.7-1-1-2.1-0.9-3c0.1-1,0.9-1.5,1.7-1.4c0.4,0,0.9,0.2,1.4,0.4l1.1,0.4
			c0.3,0.1,0.4,0.1,0.6,0.1c0.4,0,0.7-0.1,0.7-0.4c0-0.3-0.2-0.5-0.5-0.7l0.2-0.2c1,0.3,1.6,1,1.5,1.7C10.6,44.2,10.1,44.5,9.5,44.5
			z"/>
		<path class="st0" d="M11.8,35.9c-0.4-0.1-0.9-0.5-1.5-0.9c-0.5-0.3-0.9-0.6-1.3-0.7c-0.6-0.2-1.1,0-1.4,0.8
			c-0.2,0.7-0.2,1.8,0.1,2.7l1.4,0.9c1,0.6,1.7,0.5,2.3-0.1l0.3,0.2l-1,3l-0.3-0.2c0-1.1-0.4-1.6-1.4-2.1l-0.5-0.3
			c-1-0.6-1.7-0.5-2.3-0.1l-0.3-0.2l-0.2-2l0.1-0.4C6,36.7,6.4,37,6.9,37.3c-0.5-1.1-0.6-2.3-0.3-3.1c0.3-1,1.2-1.3,2-1
			c0.4,0.1,0.9,0.4,1.3,0.6l1,0.6c0.2,0.1,0.4,0.2,0.5,0.2c0.4,0.1,0.7,0,0.8-0.3c0.1-0.3-0.1-0.6-0.4-0.8l0.2-0.2
			c0.9,0.5,1.4,1.3,1.2,1.9C12.9,35.9,12.4,36.1,11.8,35.9z"/>
		<path class="st0" d="M11.6,31.6c-1.8-1-2.3-3.4-1.4-4.9c0.5-0.9,1.3-1.4,2.1-1.4c-0.3-0.4-0.5-0.7-0.6-1.2l0.1-0.2l3.1,2.8
			c0.7,0.7,1.1,0.5,1.3,0.2c0.1-0.2,0.1-0.5-0.2-0.9l0.3-0.1c0.7,0.7,1.1,1.5,0.7,2.2c-0.2,0.3-0.6,0.5-1.2,0.3
			c0.2,0.8,0.1,1.6-0.3,2.3C14.7,32.1,13.1,32.5,11.6,31.6z M14.6,29.8c0.4-0.7,0.6-1.3,0.5-2l-1.9-1.8c-0.8,0.1-1.4,0.6-1.9,1.5
			c-0.7,1.3-0.5,2.7,0.7,3.3C12.9,31.4,13.9,31,14.6,29.8z"/>
		<path class="st0" d="M17,23.8l-2.4-3.3c-0.7-1-1.3-1.4-2.1-1.3l-0.2-0.3l0.6-1.9l0.2-0.2c0.4,0.8,1,1.7,1.8,2.8l1,1.4
			c0-1.2,0.4-2.3,1-3c0.7-0.8,1.6-0.7,2.2-0.2c0.3,0.3,0.6,0.7,0.9,1.1l0.7,0.9c0.2,0.2,0.3,0.3,0.4,0.4c0.3,0.3,0.6,0.3,0.8,0.1
			c0.2-0.2,0.1-0.5,0-0.9l0.3-0.1c0.6,0.8,0.8,1.7,0.3,2.2c-0.4,0.5-1,0.4-1.4,0c-0.3-0.3-0.6-0.8-1-1.4c-0.3-0.5-0.6-0.9-0.9-1.2
			c-0.5-0.4-1-0.4-1.6,0.2c-0.5,0.5-0.9,1.6-1,2.5l1,1.4c0.7,0.9,1.4,1.1,2.1,0.8l0.2,0.3l-2.1,2.4l-0.2-0.3
			C17.9,25.3,17.7,24.7,17,23.8z"/>
		<path class="st0" d="M26.5,15.1l-0.1-4.8c0-0.4,0-1-0.2-1.3c-0.2-0.4-0.8-0.5-1.4-0.4l-0.1-0.4l4.5-2.7l0.1,0.4
			c-0.6,0.7-1,1.3-0.4,2.2c0.1,0.2,0.2,0.3,0.4,0.5l2.7,3.1c0.7,0.8,1.4,1.1,2.4,0.9l0.1,0.4l-3.6,2.2l-0.1-0.4
			c0.9-0.9,1.1-1.6,0.5-2.7c-0.1-0.2-0.3-0.4-0.4-0.6l-3.5,2.1c0,0.6,0.1,1.2,0.3,1.6c0.3,0.5,0.8,0.8,1.5,0.6l0.1,0.4l-3.6,2.2
			L25.3,18C26.2,17.1,26.5,16.3,26.5,15.1z M30.1,10.8l-2.5-2.9l-0.4,0.2l0,4.5L30.1,10.8z"/>
		<path class="st0" d="M34.8,12.7c-0.2-0.4,0-1,0.5-1.2c0.4-0.2,0.8,0.1,0.9,0.5c0.2,0.4,0,1-0.5,1.2C35.3,13.2,35,13,34.8,12.7z"/>
		<path class="st0" d="M40.5,8.4l0.1-3.8c0-1.1-0.5-1.8-1.6-2.1l0-0.4l5.3-1c1.7-0.3,2.7,0.5,3,1.8c0.3,1.7-0.8,2.9-3.1,3.4
			l-2.8,0.5l0,1.2c0,1.1,0.4,1.9,1.9,2.2l0,0.4l-4.3,0.9l0-0.4C40,10.4,40.5,9.7,40.5,8.4z M44,5.4c1.7-0.3,2.6-1.1,2.4-2.3
			c-0.2-0.8-0.9-1.2-2.1-0.9l-1.4,0.3c-1,0.2-1.4,0.6-1.5,1.8l0,1.6L44,5.4z"/>
		<path class="st0" d="M48.2,7.2c0-2.1,1.8-3.7,3.6-3.7c1.1,0,1.8,0.4,2.3,1.1c0.2-0.5,0.4-0.8,0.7-1.1l0.3,0l-0.9,4.1
			c-0.2,0.9,0.1,1.2,0.4,1.2c0.2,0,0.5-0.2,0.6-0.6l0.2,0.2c-0.2,1-0.8,1.7-1.5,1.7c-0.4,0-0.8-0.3-0.9-0.8
			c-0.6,0.6-1.4,0.8-2.1,0.8C49.3,10.1,48.2,8.9,48.2,7.2z M51.2,8.8c0.8,0,1.4-0.2,2-0.5l0.6-2.6c-0.5-0.6-1.2-0.9-2.2-0.9
			C50.1,4.8,49,5.7,49,7C49,8.2,49.9,8.8,51.2,8.8z"/>
		<path class="st0" d="M56.8,8.5l0.7-1.8c0.4-1.2,0.3-1.9-0.6-2.2L57,4.1c1,0,1.9-0.5,2.6-1.8l0.4,0.1l-0.8,2l1.8,0.3L61,5.1
			c-1.2,0-2.3,0.5-2.7,1.7l-0.5,1.4c-0.2,0.7-0.1,1.2,0.5,1.3c0.4,0.1,0.8-0.2,1.1-0.6l0.3,0.2c-0.5,1.1-1.2,1.7-2,1.6
			C56.6,10.5,56.4,9.5,56.8,8.5z"/>
		<path class="st0" d="M61,8.4c0.6-1.9,2.6-3.1,4.5-2.6c1.6,0.5,2.3,1.8,1.9,3.5l-0.3,0.2L61.8,9c0.1,0.9,0.9,1.5,1.8,1.8
			c0.9,0.3,1.8,0.2,2.7-0.3l0.2,0.3c-1,1.2-2.3,1.5-3.4,1.1C61.3,11.4,60.5,9.9,61,8.4z M66.6,8.7c-0.1-0.7-0.7-1.4-1.7-1.7
			c-1.3-0.4-2.6,0.2-3,1.3L66.6,8.7z"/>
		<path class="st0" d="M67.9,11.8l2.8-3.8c0.7-1,0.9-1.8,0.6-2.4l0.2-0.3l1.9,0l0.4,0.2c-0.7,0.6-1.4,1.5-2.2,2.6L69,11.6
			c-0.4,0.5-0.3,0.9,0,1.1c0.3,0.1,0.6,0,0.8-0.1l0.2,0.3c-0.6,0.7-1.3,1.2-2,0.9C67.2,13.4,67.3,12.7,67.9,11.8z"/>
		<path class="st0" d="M71.3,13.4l3.1-3.6c0.8-0.9,1.1-1.7,0.8-2.4l0.3-0.3l1.9,0.1l0.3,0.2C77,8,76.2,8.8,75.3,9.8l-3,3.5
			c-0.4,0.5-0.4,0.9-0.1,1.1c0.2,0.1,0.6,0.1,0.8-0.1l0.1,0.3c-0.6,0.6-1.4,1.1-2.1,0.7C70.4,14.9,70.6,14.2,71.3,13.4z"/>
		<path class="st0" d="M74.4,15.3l1-0.9c0.8-0.8,1-1.4,0.8-2.1l0.3-0.3l1.9,0.3l0.3,0.2c-0.7,0.5-1.6,1.2-2.5,2.1l-0.8,0.7
			c-0.4,0.4-0.5,0.9-0.2,1.1c0.3,0.2,0.5,0.1,0.8,0l0.1,0.3c-0.7,0.6-1.5,0.9-2.1,0.6C73.5,16.8,73.6,16,74.4,15.3z M80.3,9.9
			c0.4,0.3,0.5,0.7,0.2,1.1c-0.3,0.5-0.9,0.6-1.4,0.3c-0.4-0.3-0.4-0.8-0.2-1.1C79.2,9.7,79.9,9.6,80.3,9.9z"/>
		<path class="st0" d="M76.8,18.3l-0.6,0.2l-0.3-0.2l1.4-1.7l0.4,0.1c-0.1,1,0.3,2.1,1.2,2.8c0.7,0.6,1.3,0.9,1.7,0.4
			c0.4-0.4-0.1-1.2-0.6-1.9c-0.7-1-1.2-1.9-0.5-2.7c0.7-0.8,2-0.7,3,0.2c0.6,0.5,0.9,1.1,1.1,1.5l0.5-0.2l0.3,0.2l-1.2,1.7l-0.4-0.1
			c0-0.9-0.4-1.7-1.1-2.4c-0.6-0.6-1.3-0.7-1.6-0.3c-0.3,0.4,0,0.9,0.6,1.7c0.7,1,1.4,2.1,0.6,3c-0.7,0.8-2,0.8-3.2-0.3
			C77.2,19.6,77,18.9,76.8,18.3z"/>
	</g>
</g>
</svg>
