<?xml version="1.0" encoding="utf-8"?>
<!-- Generator: Adobe Illustrator 27.8.1, SVG Export Plug-In . SVG Version: 6.00 Build 0)  -->
<svg version="1.1" id="Layer_1" xmlns="http://www.w3.org/2000/svg" xmlns:xlink="http://www.w3.org/1999/xlink" x="0px" y="0px"
	 viewBox="0 0 448 512" style="enable-background:new 0 0 448 512;" xml:space="preserve">
<style type="text/css">
	.st0{fill:#39546E;}
</style>
<g id="kZbgnx.tif">
</g>
<path class="st0" d="M331,245.3c-1.9-0.9-3.9-1.8-5.9-2.7c-3.5-63.6-38.2-100-96.5-100.3c-0.3,0-0.5,0-0.8,0
	c-34.9,0-63.9,14.9-81.8,42l32.1,22c13.3-20.2,34.3-24.6,49.7-24.6c0.2,0,0.4,0,0.5,0c19.2,0.1,33.7,5.7,43.1,16.6
	c6.8,7.9,11.4,18.9,13.7,32.7c-17-2.9-35.4-3.8-55.1-2.7c-55.5,3.2-91.1,35.5-88.7,80.5c1.2,22.8,12.6,42.4,32,55.2
	c16.4,10.8,37.5,16.1,59.5,14.9c29-1.6,51.8-12.7,67.6-32.9c12.1-15.4,19.7-35.3,23-60.4c13.8,8.3,24.1,19.3,29.7,32.5
	c9.6,22.4,10.2,59.3-19.9,89.3c-26.4,26.3-58,37.7-105.9,38.1c-53.1-0.4-93.3-17.4-119.4-50.6c-24.5-31.1-37.1-76-37.6-133.4
	c0.5-57.5,13.1-102.4,37.6-133.4C134,95,174.2,78,227.3,77.6c53.5,0.4,94.3,17.5,121.5,50.9c13.3,16.4,23.3,36.9,29.9,60.9l37.6-10
	c-8-29.5-20.6-55-37.8-76.1c-34.8-42.8-85.6-64.7-151.1-65.1h-0.3c-65.4,0.5-115.6,22.4-149.4,65.4c-30,38.2-45.5,91.3-46.1,158
	l0,0.2l0,0.2c0.5,66.6,16,119.8,46.1,158c33.8,42.9,84,64.9,149.4,65.4h0.3c58.1-0.4,99.1-15.6,132.8-49.3
	c44.1-44.1,42.8-99.4,28.3-133.3C378.1,278.1,358.2,258.4,331,245.3z M230.6,339.7c-24.3,1.4-49.6-9.5-50.8-32.9
	c-0.9-17.3,12.3-36.7,52.3-39c4.6-0.3,9.1-0.4,13.5-0.4c14.5,0,28.1,1.4,40.4,4.1C281.4,329,254.4,338.3,230.6,339.7z"/>
</svg>
