<?xml version="1.0" encoding="utf-8"?>
<!-- Generator: Adobe Illustrator 28.0.0, SVG Export Plug-In . SVG Version: 6.00 Build 0)  -->
<svg version="1.1" id="a" xmlns="http://www.w3.org/2000/svg" xmlns:xlink="http://www.w3.org/1999/xlink" x="0px" y="0px"
	 viewBox="0 0 857 493.9" style="enable-background:new 0 0 857 493.9;" xml:space="preserve">
<style type="text/css">
	.st0{fill:#F9CBDA;}
	.st1{fill:#442731;}
</style>
<path class="st0" d="M493.6,110.6c-0.9,0.6-1.7,1.2-2.7,1.7c-12.7,6.3-25.4,12.5-39,16.5c-6,1.8-12,3.2-18.3,3.2
	c-2.3,0-4.5-0.3-6.7-1.1c-6-2.2-8.7-7.1-7.5-13.4c0.9-4.7,3.1-8.9,4.9-13.2c0.9-2.2,2-4.3,2.6-6.8c-1.5,0.2-2.7,0.7-3.9,1.2
	c-10.6,4.6-20.6,10.5-30.9,15.7c-4.7,2.4-9.4,4.9-14.3,6.8c-1.4,0.6-2.8,1-4.4,1.1c-4.2,0.1-6.5-3.6-4.6-7.4
	c0.6-1.3,1.7-2.2,2.4-3.5c-4.9,2.8-9.7,5.7-14.8,8.2c-4.8,2.3-9.5,4.5-14.8,5.4c-1.6,0.3-3.3,0.3-4.9,0.1c-4-0.6-6.1-3.2-6.4-7.6
	c-0.8-0.2-1.3,0.4-1.8,0.7c-4.1,2.2-8.3,4.2-12.9,5.3c-1.5,0.4-3.1,0.5-4.7,0.3c-3.6-0.4-5.8-2.8-6-6.4c0-0.4,0-0.7,0-1.2
	c-4.3,1.5-8.5,3.1-12.7,4.4c-4.1,1.3-8.2,2.4-12.6,1.7c-4.9-0.8-7.3-4.6-6-9.4c0.6-2,1.6-3.8,2.5-5.7c0.5-0.9,0.9-1.9,1.4-2.9
	c-1-0.1-1.5,0.4-2.1,0.8c-7.9,4.4-15.8,8.9-23.7,13.2c-2.2,1.2-4.6,2.4-7,3.4c-3.3,1.4-5.9,1-7.5-0.9c-2-2.4-1.3-5,0.1-7.4
	c1.7-2.9,3.5-5.8,5.2-8.8c-0.9-0.2-1.4,0.4-1.9,0.7c-9.3,5.2-18.6,10.3-28.5,14.2c-2.7,1.1-5.5,1.9-8.4,2.3
	c-6.7,1-10.8-3.8-8.9-10.2c0.6-2.2,1.7-4.2,2.6-6.3c0.2-0.6,0.7-1.1,0.5-1.8c-0.8-0.1-1.4,0.5-2,0.9c-7.7,4.5-15.4,9.1-23.1,13.6
	c-1.7,1-3.6,1.9-5.4,2.7c-3.2,1.3-5.9,0.9-7.5-1.1c-1.5-2-1.3-4.6,0.9-7.4c3-3.8,6.2-7.5,9.2-11.2c0.7-0.8,1.3-1.7,2.1-2.7
	c-1,0-1.5,0.5-2,0.8c-7.9,4.5-15.6,9.2-23.9,12.9c-4,1.8-8.1,3.4-12.6,3.7c-4.9,0.3-8.9-1.6-10.2-6c-0.4-1.3-1-0.5-1.5-0.2
	c-3.1,1.8-6.1,3.8-9.2,5.6c-3.9,2.3-7.9,4.4-12.4,5.4c-3.1,0.7-6,0.6-8.3-2.1c-0.7-0.8-1.3-0.3-1.9-0.1c-4.5,1.6-9,2.8-13.8,3.1
	c-3.4,0.2-6.8-0.2-9.9-1.7c-4.6-2.1-6.8-5.9-7.7-10.7c-0.2-0.9-0.3-1.7-0.5-2.7c-0.8,0.1-1.1,0.7-1.6,1.2
	c-4.8,4.6-9.5,9.3-14.6,13.6c-0.8,0.7-1.7,1.4-2.6,1.9c-1.9,1.1-4,0.9-5.4-0.4c-1.4-1.3-1.8-3.4-0.8-5.4c1-2.2,2.7-4,4.1-5.8
	c0.8-1,1.6-2,2.2-3.2c-2.9,2.7-5.8,5.3-8.7,7.9c-2.5,2.2-5,4.2-7.5,6.3c-0.8,0.6-1.6,1.2-2.5,1.6c-1.9,0.9-4,0.3-5-1.4
	c-1-1.6-0.7-3.6,0.8-4.9c1.3-1.2,2.8-2.2,4.1-3.3C30.4,106.5,39,98,47.5,89.4c23.7-24.1,47.2-48.5,70.4-73.1
	c2.5-2.7,4.9-5.5,7.4-8.3c0.5-0.6,1.1-1.3,1.6-1.8c1.9-1.9,4.2-2.2,5.9-0.7c1.7,1.4,2,3.9,0.4,5.9c-4.1,5.1-8.5,10.1-12.6,15.3
	c-16.7,20.8-34.7,40.5-51.9,60.8c-1.7,2-3.4,4-5.3,6.2c3.4,1.4,3.7,4.3,3.5,7.4c-0.1,2.4,0.1,4.8,0.6,7.1c0.6,2.8,2.4,4.1,5,4.6
	c3.8,0.7,7.4-0.1,11-1c3-0.8,6-1.9,8.9-3.1c0.5-0.2,1-0.5,1.4-0.9c6.7-8.1,15.2-13.8,24-19.3c4.3-2.7,8.7-5.3,13.5-7.1
	c1.5-0.6,3-1,4.6-1c4.2,0,6.7,3.6,5.1,7.5c-0.8,1.9-2.1,3.4-3.7,4.7c-2.5,2.1-5.4,3.8-8.2,5.7c2.6,1.6,2.9,3.9,2.7,6.6
	c-0.2,2.4,0,2.5,2.4,2.2c3.1-0.4,5.9-1.6,8.8-2.8c8.4-3.8,16.3-8.7,24.3-13.3c2.7-1.5,5.5-3.1,8.3-4.5c1.7-0.8,3.5-1.4,5.5-1
	c3.5,0.7,5.2,3.8,4.1,7.5c-1,3.5-3.2,6.4-5.3,9.3c-0.5,0.7-1,1.4-1.7,2.3c0.9-0.1,1.4-0.6,2-0.9c5.1-2.9,10.2-6,15.4-8.9
	c2.2-1.2,4.5-2.2,7.1-2.1c3.2,0.1,5.6,2.4,5.8,5.6c0.2,2.6-0.7,4.9-1.6,7.3c-0.9,2.3-2,4.6-3,7c1.5,0.2,2.7-0.4,3.9-0.9
	c7.7-2.8,15-6.5,22.1-10.4c4.6-2.5,9.1-5.1,13.7-7.6c1.6-0.9,3.4-1.7,5.3-1.8c3.8-0.1,6.4,2.8,5.9,6.6c-0.4,2.8-1.7,5.4-3,7.9
	c-0.4,0.7-0.7,1.4-1.2,2.3c1.1-0.1,1.7-0.6,2.3-0.9c6.8-3.8,13.5-7.8,20.4-11.4c1.9-1,3.9-1.9,6-2.3c5.6-1.2,9.6,2.8,8.4,8.4
	c-0.6,3-2.1,5.6-3.4,8.4c-0.4,0.8-1,1.6-1.1,2.7c1.8,0.2,3.4-0.4,5-0.9c14.5-4.5,28.3-10.5,41.2-18.5c0.9-0.5,1.7-1.1,2.6-1.4
	c2-0.8,4-0.1,5.2,1.6c1.1,1.6,0.9,3.8-0.5,5.4c-1.3,1.4-3,2.3-4.6,3.3c-4.4,2.6-8.5,5.5-12.5,8.7c-0.6,0.5-1.2,1.1-1.6,1.9
	c1.5-0.7,3-1.4,4.5-2.1c6.2-3.3,12.2-6.9,18.1-10.8c0.6-0.4,1.1-0.8,1.8-1.1c2-1,4.2-0.6,5.5,1c1.2,1.5,1.4,3.7,0.1,5.4
	c-1.3,1.7-2.8,3.2-4.2,4.9c-1.4,1.7-2.8,3.4-3.7,5.6c2.8-0.3,5.3-1.2,7.7-2.3c11.5-5,22-11.9,32.2-19.1
	c20.8-14.6,39.8-31.4,58.6-48.3c5.8-5.3,11.6-10.6,17.4-15.9c1.4-1.3,3-2,5-1.4c1.6,0.5,2.6,1.8,2.8,3.5c0.2,1.7-0.5,3-1.7,4.2
	c-3.4,3.5-6.8,7.1-10.3,10.5c-19.1,18.7-38.9,36.9-58.4,55.2c-0.5,0.5-1.1,0.8-2,1.5c1.3,0.1,1.9-0.4,2.4-0.7
	c8.2-4.3,16.4-8.8,25-12.5c3-1.3,6.1-2.5,9.4-2.4c4.9,0,8.1,3.6,7.5,8.5c-0.4,3.5-1.8,6.6-3.1,9.8c-1.5,3.7-3.4,7.3-4.4,11.2
	c-0.8,3.3-0.1,4.4,3.2,4.9c5.1,0.6,10-0.5,14.9-1.8c12.9-3.5,25.8-7.2,38.9-9.8C488,110.9,490.6,110.3,493.6,110.6L493.6,110.6z"/>
<g>
	<path class="st0" d="M743.3,222.6c-2.1,1.2-3.9,1.7-5.7,2.2c-13.4,3.5-26.8,6.9-40.5,8.9c-13.3,1.9-26.6,3.6-40,3.2
		c-4.6-0.1-9.2-0.8-13.3-3c-5.6-3-7.1-8.6-3.4-13.8c3-4.3,7.1-7.6,11.2-10.9c7.7-6.3,15.7-12.2,23.1-18.9c3.3-3.1,6.6-6.2,8.9-10.2
		c0.1-0.2,0.3-0.4,0.4-0.6c2.8-4.9,1.7-7.9-3.8-9.6c-5.6-1.8-11.5-2.1-17.4-2.2c-16.5-0.4-32.8,0.9-49.1,3.1
		c-40.7,5.4-80.2,16.1-119.2,28.5c-57.6,18.4-113.3,41.1-166.9,69c-1.5,0.8-2.6,1.4-1.8,3.5c0.6,1.7-0.3,3.3-1.2,4.8
		c-0.5,0.8-1.1,1.4-1.4,2.2c-0.9,3.3-0.9,7,4.4,7.7c4.2,0.5,8.1-0.6,12-1.8c6-1.9,11.3-5.1,16.5-8.6c2.2-1.5,4.5-3,6.8-4.4
		c1.1-0.7,2.3-1.3,3.6-1.6c3.6-0.7,6.2,1.6,6.2,5.2c0,2.1-0.8,4-1.6,6c-0.5,1.1-1,2.2-1.2,3.6c1.2-0.8,2.4-1.5,3.6-2.3
		c5.5-3.6,10.9-7.5,16.6-10.8c2.2-1.2,4.4-2.5,7-2.5c3.7-0.1,6.4,2.2,6.8,5.9c0.4,2.9-0.2,5.8-0.6,8.6c-0.8,5.6,0.5,7.2,6.2,7.3
		c4.5,0,8.7-1.2,12.9-2.5c0.5-0.1,1.1-0.2,0.7-1.1c-2-4.5-0.3-8.2,2.5-11.6c5.7-7,13-12,21.6-14.9c2.2-0.8,4.5-1.1,6.9-0.9
		c0.9,0.1,1.8,0.2,2.6,0.4c3.7,1,6.3,3.1,7,7.4c2.9-2.5,6.2-4.1,8.3-7.4c11.7-18.1,24.7-35.2,40.6-49.9c2.2-2,4.5-3.9,7.3-4.9
		c2-0.6,3.9-0.5,5.5,1c1.5,1.5,1.9,3.3,1.3,5.4c-0.5,1.6-1.3,3-2.2,4.4c-3,4.5-6.3,8.8-9.7,13c-10.9,13.9-22.8,26.8-36.4,38.2
		c-3.4,2.9-4.6,7.5-4,12.1c0.3,3,2.7,4,5.3,4.6c4,0.9,7.9,0.3,11.8-0.6c18.3-4.5,34.8-12.7,49.3-24.7c3.9-3.2,8.4-5,13.1-6.5
		c11-3.3,22.2-5.3,33.8-5.5c2,0,3.9,0.2,5.8,0.7c6.4,1.6,9.3,6.8,7.2,13.2c-1,3.2-2.9,6-5,8.6c-3.1,4-6.6,7.6-9.9,11.4
		c-1.1,1.3-2.2,2.6-3.1,4c-1.2,2.1-0.7,3.3,1.5,4c2.3,0.6,4.6,0.9,6.9,0.6c16-1.4,31-6,45.5-12.8c0.7-0.3,1.2-0.8,1.7-1.5
		c4.5-6.5,10.4-11.4,17.3-15.1c1.3-0.7,2.7-1.3,4.2-1.6c2.4-0.5,4.6-0.1,6.1,2c1.5,2,1.3,4.1,0.3,6.2c-1.1,2.1-2.8,3.7-4.7,5.1
		c-4.9,3.8-10.1,7.1-15.4,10.1c-0.9,0.5-2,0.9-1.9,2.3c0.1,1.3,1,2,2,2.5c1.7,0.9,3.6,1.2,5.5,1.3c3.3,0.2,6.7,0.3,10-0.3
		c0.7-0.1,1.3-0.2,1.5-1.1c0.8-3.6,3.3-6.2,6.1-8.4c8.5-6.5,18-11.2,28.1-14.7c3.9-1.4,7.8-2.4,11.9-2.9c1.9-0.2,3.8-0.2,5.6,0.2
		c4.7,1.1,6.6,5.8,3.9,9.8c-1.5,2.3-3.6,3.8-5.9,5.2c-5.5,3.5-11.3,6.6-17.2,9.4c-0.5,0.3-1.1,0.6-1.6,1c3.5-0.3,6.9-1.1,10.2-1.9
		c3.3-0.8,6.7-1.7,9.9-3c2.2-0.9,4.2-0.4,5.5,1c1.3,1.5,1.5,3.5,0.5,5.6c-0.1,0.3-0.3,0.5-0.5,0.8c-2.1,3.6-1.8,4.3,2.2,5.6
		c5.2,1.7,10.6,2,16,2.1c4.5,0.1,8.9-0.1,13.4-0.3c9.5-0.3,19,0.2,28.5,1c0.9,0.1,1.8,0.3,3,0.8c-0.9,0.9-2,1.2-3,1.5
		c-14.7,4.5-29.8,7-45.2,6c-6-0.4-12.1-0.9-17.7-3.3c-3.8-1.7-6.7-4.2-7.5-8.5c-0.2-1.2-0.8-1-1.6-0.8c-7.3,1.9-14.7,3.3-22.3,3.9
		c-5.8,0.5-11.6,1-17.2-1c-1-0.4-2,0.1-2.9,0.3c-6.8,1.2-13.5,1.5-20.2-0.3c-4.2-1.2-7.7-3.4-9.4-7.7c-0.5-1.2-1.1-0.7-1.8-0.4
		c-9.3,3.9-19,6.7-28.8,8.8c-6.3,1.4-12.8,2.3-19.3,1.7c-2.2-0.2-4.3-0.6-6.4-1.5c-5.7-2.5-8.2-8.8-5.9-14.5c1-2.5,2.7-4.5,4.4-6.6
		c3.4-4,7.1-7.6,10.3-11.8c1.3-1.7,2.5-3.4,3.4-5.4c0.6-1.5,0.2-2.3-1.4-2.5c-2.5-0.3-4.9-0.3-7.4-0.1c-10.2,0.9-20.2,2.6-29.9,6
		c-3,1-5.6,2.7-8.1,4.7c-15.8,12.5-33.3,21.3-53,25.7c-5.4,1.2-11,1.6-16.4-0.2c-6.3-2-9.8-6.3-10.4-13c0-0.6-0.1-1.2-0.2-2
		c-2.5,1.6-4.8,3.1-7.1,4.5c-12.7,7.4-26.1,13.3-40.4,17c-4.1,1.1-8.3,1.4-12.5,0.6c-6.7-1.1-10.6-5.5-10.7-12.3
		c-0.1-2.8,0.5-5.5,0.7-8.3c-1.2,0.2-2.1,0.9-2.9,1.5c-5,3.2-10,6.5-15,9.8c-2.6,1.7-5.3,3.4-8.2,4.7c-1.3,0.6-2.7,1.1-4.1,1.3
		c-4,0.6-7-2.5-6.5-6.5c0.3-2.3,1.5-4.3,2.5-6.9c-1.1,0.7-1.8,1.1-2.5,1.6c-7,4.6-14.5,8.2-22.9,9.9c-3,0.6-6,0.9-9,0.5
		c-5.2-0.7-9.4-3-11.5-8.4c-3,2.5-5.9,4.8-8.9,6.9c-4,2.7-8.1,5.3-12.8,6.7c-1.9,0.6-3.8,1-5.8,0.7c-3.7-0.5-5.5-2-6.4-5.6
		c-0.2-0.9-0.4-1.1-1.2-0.6c-5.9,3.5-11.8,7-17.7,10.5c-1.1,0.6-0.4,1,0.1,1.5c3.7,3.6,7.5,7.3,11.2,10.9c1,1,1.9,2.1,2.8,3.6
		c-1.8-0.4-3.1-1-4.5-1.7c-5.2-2.8-10.3-5.8-15.3-9c-1.1-0.7-1.8-0.7-2.9,0c-9.9,6.3-19.5,12.9-29,19.8c-0.7,0.5-1.3,1-2,1.4
		c-2.4,1.5-4.9,1.2-6.2-0.8c-1.3-1.9-0.6-4.2,1.7-5.8c6.4-4.5,12.8-9.1,19.3-13.6c3.1-2.1,6.3-4.2,9.4-6.2c0.6-0.4,1.2-0.6,0.4-1.5
		c-7.6-7.8-11-17.2-10.9-28c0-0.4,0-0.8,0-1.1c0-0.1,0-0.1-0.1-0.3c-0.8,0.1-1.1,0.9-1.6,1.4c-12.1,12.8-26.6,21.7-43.6,26
		c-5.9,1.5-11.8,1.5-17.7-0.4c-2.3-0.8-4.3-2.1-5.8-4.1c-0.5-0.6-0.9-0.9-1.7-0.7c-0.6,0.1-1.3,0.1-1.9,0.1c-2-0.3-3.3-1.6-3.4-3.4
		c-0.1-1.9,1-3.6,3.1-3.9c1.4-0.2,1.8-0.9,2.1-2.1c1.1-4.8,3.9-8.7,7-12.3c6.8-7.9,14.8-14.2,24.6-17.9c2.9-1.1,5.9-1.4,8.9-0.6
		c4.7,1.2,6.8,5.2,5.1,9.7c-1.2,3.1-3.4,5.4-5.9,7.5c-8.2,6.9-17,13-26.5,17.9c-1.1,0.6-2.2,1.1-3.6,1.9c1.6,0.9,3.1,1,4.6,1.1
		c8.4,0.7,15.9-2.2,23.2-5.6c13.4-6.4,24.5-15.6,33.3-27.5c0.6-0.8,1.1-1.5,1.8-2.2c1.3-1.2,2.8-1.7,4.5-1c1.7,0.7,2.6,2.1,2.5,3.9
		c0,2.2-0.4,4.4-0.5,6.6c-0.4,6-0.6,12.1,1.4,17.9c1.6,4.8,4.2,9.1,8,12.6c0.8,0.7,1.3,0.9,2.2,0.3c11.6-7.2,23.4-14,35.2-20.8
		c3.6-2.1,6.8-4.8,10.5-6.6c44.3-22.4,88.8-44.3,135.4-61.5c35.8-13.2,72-25.1,109-34.6c19.6-5.1,39.5-9,59.5-12
		c18.5-2.8,37.1-4.4,55.9-4c7.2,0.1,14.5,0.4,21.4,2.9c4.5,1.6,8.1,4.3,9.6,9.1c1.3,4.3,0.1,8.3-2,12.1c-2.8,5.3-7,9.5-11.4,13.5
		c-7.8,7.2-16.4,13.5-24.6,20.3c-2.6,2.1-5,4.4-7.2,6.9c-1.1,1.3-0.7,1.9,0.7,2.4c3,1.1,6.1,1.5,9.3,1.6c8.7,0.2,17.4-0.6,26-1.7
		c18.1-2.3,36.2-3.8,54.4-4.2C739.8,222.3,741.3,222.5,743.3,222.6L743.3,222.6z M204.8,263.2c-7.3-1.1-25.4,12.1-28.7,20.7
		C186.5,278.1,196.1,271.8,204.8,263.2z M431.3,283.2c1.1,0.3,2.1,0.2,3.1-0.1c7.4-2.2,13.5-6.3,18.7-11.9c0.7-0.7,1.9-1.7,1.5-2.4
		c-0.6-1-2.1-0.5-3.1-0.2c-8,2.1-14.3,6.7-19.4,13C431.7,282,431.3,282.5,431.3,283.2L431.3,283.2z M289.4,292.5
		c5.5-0.2,22.3-11.8,26.1-17.8c-0.2,0-0.4,0-0.6,0.1c-6.4,3.5-12.8,6.9-19.2,10.5C293,287,291.1,289.6,289.4,292.5L289.4,292.5z
		 M702.6,271.5c-4.6,0.5-20.5,8.1-23.4,11.1C687.4,279.5,695.2,275.8,702.6,271.5z"/>
	<path class="st0" d="M146.6,317.9c-1.1-1.3-2-2.1-2.7-3.1c-4.4-6.2-8.5-12.6-12.4-19.2c-3.3-5.7-5-11.9-5.7-18.4
		c-0.1-1.1-0.4-1.3-1.5-0.9c-8.1,3.4-16.4,6.1-25,7.8c-1.2,0.2-1.4,0.8-1.4,1.9c0.3,3.8,0.4,7.7,0.2,11.5c-0.4,7-5.3,10.2-11.9,7.6
		c-3.9-1.5-7.1-4-10.4-6.5c-5.4-4.2-10.4-8.7-15.4-13.4c-0.8-0.8-1.8-1.4-2.9-1.6c-6.1-1.4-11.9-3.6-17.3-6.8
		c-1.3-0.8-1.8,0-2.4,0.8c-9.6,12.4-19.6,24.5-30,36.1c-0.7,0.8-1.4,1.6-2.3,2.2c-1.5,1.1-3.4,1-4.7-0.2c-1.2-1.2-1.5-2.9-0.6-4.5
		c0.4-0.6,0.9-1.2,1.4-1.8c10.4-11.8,20.3-23.9,29.9-36.3c1-1.3,1.1-2.1-0.2-3.2c-1.3-1.1-2.2-2.6-2.9-4.2c-1.6-4.1,0.9-8,5.3-8.3
		c2.2-0.1,4.2,0.4,6,1.5c1.3,0.8,2,0.5,2.8-0.7c15.8-22.2,30.1-45.3,43.7-68.9c1.3-2.3,2.7-4.7,4.1-7c0.7-1.2,1.7-2.2,3.1-2.7
		c3-1,5.8,1.1,5.7,4.6c-0.1,3.8-0.5,7.6-0.8,11.5c-1.8,20.6-3,41.1-1.9,61.8c0.3,5.5,0.6,11,0.8,16.6c0.1,1.8,0.6,1.8,2.1,1.5
		c8.3-1.9,16.3-4.7,24.1-8c1.3-0.5,1.7-1.2,1.8-2.6c0.9-17.2,4.2-33.9,12.1-49.4c3.8-7.4,8.5-14.3,15-19.6c5-4.1,10.8-6.5,17.3-6.7
		c7.3-0.3,13.6,5.4,14.9,13.3c1.4,8.2-0.4,16-3.3,23.6c-6.2,16.2-17.4,28.3-32,37.5c-4.6,2.9-9.2,5.6-14.2,7.9
		c-1.1,0.5-1.3,1.1-1.2,2.2c0.4,5.2,1.3,10.3,3.2,15.2c3,7.9,5.8,15.8,8.4,23.8C146.2,314.2,146.7,315.7,146.6,317.9L146.6,317.9z
		 M90.1,199.4c-0.3,0.4-0.4,0.5-0.5,0.6c-12.6,21.7-26,42.9-40.7,63.2c-0.7,0.9-0.4,1.3,0.4,1.9c4.5,3.2,8.6,6.7,12.7,10.4
		c0.6,0.5,1.1,1,1.9,1.1c8.1,1.3,16.1,1.5,24.3,0.8c1.1-0.1,1.4-0.4,1.3-1.5c-0.3-5.6-0.6-11.3-0.9-16.9c-0.5-12.2-0.7-24.5,0-36.7
		C89.1,214.8,89.6,207.2,90.1,199.4L90.1,199.4z M134.1,262.4c0.8,0.1,1.2-0.3,1.7-0.6c4.9-2.6,9.6-5.5,14.1-8.7
		c13.4-9.8,22.9-22.3,26.4-38.8c0.8-3.9,1.1-8-0.2-11.9c-1.1-3.4-3.4-5-7-4.7c-4.3,0.3-8.1,2.1-11.4,4.9
		c-5.4,4.6-9.3,10.4-12.5,16.6c-4.9,9.4-7.8,19.4-9.4,29.8C135,253.4,134.3,257.9,134.1,262.4L134.1,262.4z M74.1,286.4
		c2.1,1.8,4.2,3.5,6.4,5.3c2.5,2.1,5.2,4,8.1,5.5c1.2,0.6,1.7,0.4,1.7-1c0.1-3.2-0.2-6.4-0.3-9.6c0-0.8-0.4-1-1.1-0.9
		C84,286.3,79.1,286.1,74.1,286.4L74.1,286.4z"/>
</g>
<g>
	<path class="st0" d="M150.5,429.2c-1.1,2.9-2,5.4-2.9,7.9c-6.2,15.5-14.2,29.9-22.6,44.3c-1.8,3.1-3.6,6.2-5.4,9.3
		c-0.4,0.7-0.8,1.4-1.4,2c-1.3,1.5-3.4,1.7-5,0.7c-1.5-1-2.1-2.8-1.4-4.7c0.3-0.8,0.8-1.6,1.2-2.3c8.1-13.9,16.1-27.7,22.9-42.3
		c3.5-7.5,6.4-15.1,8.9-23c0.8-2.4,1.6-4.8,4.6-5.1c3-0.3,4.4,1.7,5.6,4c6,12.2,11.8,24.6,15.6,37.7c0.9,3,1,6,0.4,9.1
		c-0.2,0.7-0.3,1.5,0.9,1.2c4.3-0.9,8.6-1.8,12.9-3.3c-3.3-6-0.9-10.9,2.8-15.5c3.3-4,7.3-7.1,12.6-8.1c3.9-0.7,7.5-0.1,10.1,3
		c2.7,3.2,2.6,6.8,1.3,10.5c-0.5,1.3-1.1,2.5-2,3.6c-1.1,1.4-0.8,2.5,0.3,3.7c1.8,2,4.1,2.5,6.7,2.5c3,0,5.9-0.5,8.8-1.1
		c0.6-0.1,1.1-0.3,1.4-1.1c1.8-5.2,5.4-8.9,9.6-12c7.9-5.8,16.2-10.6,25.8-12.8c0.8-0.2,1.1-0.7,1.4-1.4c7.9-17,17.7-32.8,29.2-47.6
		c2.7-3.5,5.7-6.8,9.2-9.7c1.8-1.5,3.7-2.8,6-3.5c4.7-1.4,8.4,1.7,8.1,6.5c-0.1,1.9-0.6,3.6-1.4,5.3c-11.1,22.9-23.4,45-41.2,63.5
		c-1.4,1.5-2.9,3-4.4,4.4c-0.9,0.8-0.8,1.4-0.3,2.3c1.6,2.5,4.1,3.4,6.9,3.6c5.4,0.5,10.6-0.7,15.7-2.5c5.2-1.8,10.3-4.1,15.2-6.6
		c0.7-0.4,1.4-0.7,1.5-1.7c0.7-6.3,3.6-11.7,7.4-16.7c5.5-7.2,12.2-13,20.5-16.9c3.1-1.4,6.3-2.1,9.7-1c2.1,0.6,3.8,1.7,4.8,3.7
		c0.4,0.8,1,1.1,1.7,1.3c3.7,0.9,7,2.6,9.2,5.8c0.7,1,1.5,0.7,2.3,0.5c9.9-2,19.6-5.1,29.3-7.9c6.8-2,13.5-4.3,20.6-5.3
		c5.5-0.8,9.8,2,10.5,6.8c0.3,2.3-0.3,4.5-1.2,6.6c-1.5,3.4-3.5,6.5-5.7,9.5c-3.3,4.5-6.6,9.1-9.8,13.6c-1.5,2.1-2.7,4.2-3.4,6.7
		c-0.6,2.2-0.1,3.2,2.1,3.8c4.3,1,8.5,0.3,12.7-0.6c6.5-1.4,12.8-3.7,19-6.1c0.5-0.2,1.1-0.4,1.4-0.9c2.8-5.6,7.6-9.5,12.3-13.4
		c6.5-5.5,13.5-10.4,21.1-14.5c3.9-2.1,8-3.7,12.4-4.2c6.1-0.7,9.4,3.7,7.6,8.5c-0.2,0.6-0.2,1,0.2,1.6c1.5,1.9,1.2,4,0.4,6.1
		c-0.7,1.8-1.8,3.5-3.1,4.9c-1.5,1.6-1.6,3.3-1.1,5.2c1.2,4.4,3.9,7.5,8.1,9.3c5.2,2.2,10.8,3,16.4,3c8.8,0.1,17.6-0.8,26.4-0.7
		c6.2,0.1,12.5-0.1,18.7,0.3c1.2,0.1,2.5,0.1,3.9,0.6c-1.5,1-3,1.4-4.5,1.8c-11,2.8-22.1,5.3-33.5,6.7c-10.2,1.2-20.4,0.9-30.1-2.8
		c-6.3-2.4-10.6-6.8-13.3-12.9c-0.1-0.3-0.3-0.6-0.6-1.1c-4.9,3.8-10.1,7-15.6,9.7c-4.8,2.4-9.8,4.3-15.3,4.5
		c-3.1,0.1-6.2-0.1-8.8-2.1c-0.9-0.7-1.5-0.2-2.3,0.1c-7.1,2.7-14.3,5.1-21.9,6.2c-4.8,0.7-9.5,1-14.2-0.6c-6.2-2.2-9-7.7-7.4-14
		c0.9-3.5,2.7-6.6,4.7-9.6c3.4-4.8,6.9-9.6,10.4-14.4c1.5-2,2.9-4.1,4-6.4c0.3-0.6,1-1.4,0.6-1.9c-0.5-0.6-1.4-0.2-2.1,0
		c-5.2,1.1-10.4,2.6-15.5,4.1c-10.7,3.1-21.3,6.6-32.2,8.7c-0.8,0.2-1.3,0.5-1.4,1.5c-0.4,3.6-1.7,6.9-3.7,9.8
		c-6.8,10.1-15.7,17.6-27.5,21.3c-4.5,1.4-9.1,1.8-13.8,0.3c-3.8-1.2-6.7-3.4-8.6-6.9c-0.7-1.2-1.2-1.2-2.3-0.7
		c-5.9,2.9-12,5.6-18.4,7.2c-6.5,1.7-13.1,2.6-19.7,0.4c-2.9-1-5.5-2.6-7.3-5.1c-0.9-1.2-1.4-1.2-2.5-0.3
		c-5.5,4.4-11.3,8.4-18.1,10.8c-1.6,0.6-3.3,1-4.9,1.1c-3.1,0.3-6-0.4-8.3-2.8c-0.7-0.8-1.4-0.9-2.3-0.7c-4.1,0.9-8.3,1.6-12.5,1.1
		c-4.5-0.5-8.1-2.5-10.9-6c-0.5-0.6-0.7-1-1.6-0.5c-8.3,5.3-17.7,7.7-27.2,9.7c-7.2,1.5-14.5,2.4-21.9,1.9
		c-5.1-0.3-9.9-1.8-14.5-3.9c-2.6-1.2-3.6-3.5-2.7-5.7c0.9-2.2,3.1-3,5.9-2.2c4.5,1.3,9,2.8,13.8,3.2c0.4,0,0.9,0.1,1.3,0.1
		c5.6,0,7.8-2.6,6.9-8.1c-0.6-3.7-2.1-7.2-3.4-10.7C156.7,443.2,153.8,436.3,150.5,429.2L150.5,429.2z M325.2,460.6
		c0.9-0.1,2.4-0.2,3.7-0.6c10.9-3.1,18.8-10,24.7-19.4c0.4-0.6,0.6-1.4,0.9-2.1c0.4-1,0.4-1.5-0.9-1.4c-3.3,0.2-6.5,0.3-9.8-0.2
		c-0.8-0.1-1.3,0.2-1.8,0.7c-7.3,6.6-15.2,12.3-23.6,17.5c-1.2,0.7-1.2,1.4-0.5,2.4C319.6,459.9,322.1,460.4,325.2,460.6
		L325.2,460.6z M305.2,387.4c-0.1-0.1-0.2-0.1-0.3-0.2c-1,1-2,2.1-3,3.1c-7.3,8.4-13.3,17.8-19.1,27.3c-3.9,6.5-7.8,13-10.9,20
		c-0.2,0.5-0.8,1.2,0,1.7c0.7,0.4,1-0.4,1.3-0.8c1.7-2.1,3.5-4.2,5.1-6.3c10.4-13.7,18.6-28.6,26.4-43.8
		C305,388.1,305.1,387.8,305.2,387.4L305.2,387.4z M332.8,428.4c-5.8,4.4-10.6,9.3-13.7,15.8c5.2-3.2,10-6.8,14.6-10.7
		c0.3-0.2,0.6-0.5,0.3-0.9C333.3,431.3,333.2,429.9,332.8,428.4L332.8,428.4z M202.6,448.8c-3.8,0-10.7,5.5-11.4,9.1
		c-0.2,1.1,0.4,0.9,1,0.6c4.2-1.9,8.2-4.3,11.2-8c0.3-0.4,1-0.7,0.7-1.4C203.7,448.7,203.1,448.9,202.6,448.8L202.6,448.8z
		 M238.9,458.9c7.2-2.7,13.9-6.3,20.3-10.6c0.6-0.4,1-1,0.7-1.5c-0.3-0.5-0.9,0-1.4,0.2c-6,2.3-11.5,5.6-16.7,9.3
		C240.7,457,239.6,457.7,238.9,458.9L238.9,458.9z M464.5,440.9c4-2,7.8-4.4,11.3-7.3C471.8,435.5,468,438,464.5,440.9z"/>
	<path class="st0" d="M57.4,477.4c-0.1-3.7,1-6.7,2.2-9.7c4.4-11.9,10.8-22.8,17.5-33.5c12.2-19.8,26.6-38,41-56.2
		c6.3-7.9,12.8-15.7,17.9-24.5c1-1.7,1.9-3.5,2.4-5.5c0.5-2.1,0.1-2.7-2.1-2.3c-2.5,0.4-4.9,0.9-7.4,1.6
		c-25.7,6.6-50.2,16.6-74.3,27.5c-7.3,3.3-14.7,6.5-22.1,9.8c-1,0.4-2,0.8-3,1.1c-2.5,0.7-4.7-0.2-5.5-2.3c-0.8-2.2,0.2-4.4,2.7-5.4
		c4.8-1.9,9.5-4,14.2-6.2c20.1-9.2,40.3-18.2,61.4-25.2c10.1-3.4,20.2-6.5,30.6-8.7c2.6-0.5,5.2-0.8,7.8,0.1
		c4.4,1.4,6.8,5.2,6.2,9.7c-0.8,5.5-3.6,10-6.5,14.5c-7,10.5-15.1,20.1-22.9,29.9c-14.8,18.6-28.8,37.8-40.4,58.6
		c-4.1,7.3-7.9,14.7-10.4,22.7c-0.3,1-0.6,2-0.7,3.1c-0.2,1.6,0.3,2.9,1.6,4c3.3,3.1,6.6,6.3,9.6,9.6c0.6,0.6,1.6,1.5,1.2,2.2
		c-0.5,0.8-1.6,0.2-2.4-0.1c-4.3-1.3-8.6-2.9-12.5-5.2C59.2,484.8,57.2,481.5,57.4,477.4L57.4,477.4z"/>
</g>
<g>
	<path class="st1" d="M133.8,97.3c-4.6,8.8-10.8,16.1-18.7,21.8c-7.9,5.8-17.1,10.1-27.6,12.9s-21.6,4.2-33.3,4.2H13.3v-0.1
		c2.9-0.7,5.1-1.5,6.6-2.3c1.5-0.9,2.6-2.1,3.2-3.7c0.6-1.6,0.9-3.7,0.9-6.4V13.9c0-2.7-0.3-4.9-0.9-6.4c-0.6-1.6-1.6-2.8-3.2-3.7
		s-3.7-1.7-6.6-2.3V1.4h40.8c17.5,0,32.7,2.4,45.7,7.3s23,12.1,30.1,21.8s10.7,21.6,10.7,35.8C140.6,78.2,138.3,88.5,133.8,97.3
		L133.8,97.3z M107.6,34c-4.6-9.8-11.6-17.6-20.8-23.3C77.6,5.1,66.1,2,52.4,1.7l-5-0.2v134.7l5-0.2c13.5-0.4,24.8-3.3,34-8.8
		c9.2-5.5,16.2-13.2,21-23.2c4.8-9.9,7.2-21.8,7.2-35.5S112.2,43.8,107.6,34L107.6,34z"/>
	<path class="st1" d="M253,33.3L253,33.3c-1.9-7.6-4.4-13.5-7.6-17.8S237.6,8,231.7,6c-5.9-2-13.9-3.3-23.9-3.8l-14-0.8V67l23.2-0.9
		c5.2-0.2,9.2-1.1,11.9-2.5c2.7-1.4,4.6-3.5,5.9-6.2s2.3-6.1,3.1-10.2h0.1v40h-0.1c-0.8-4.1-1.8-7.5-3-10.2s-3.2-4.8-5.9-6.2
		s-6.7-2.3-11.9-2.5l-23.2-0.9v68.9l20.4-1c7.2-0.4,13.3-1.2,18.4-2.5c5-1.3,9.1-3.2,12.4-5.7c3.2-2.6,5.9-5.9,7.9-10.1
		s3.8-9.3,5.1-15.5h0.1l-1.9,34.9h-96.7v-0.1c2.9-0.7,5.1-1.5,6.6-2.3c1.5-0.9,2.6-2.1,3.2-3.7c0.6-1.6,0.9-3.7,0.9-6.4V13.9
		c0-2.7-0.3-4.9-0.9-6.4c-0.6-1.6-1.6-2.8-3.2-3.7s-3.7-1.7-6.6-2.3V1.4h91.8L253,33.3L253,33.3z"/>
	<path class="st1" d="M283.7,38c3.7-8.4,8.7-15.4,15.1-21s13.8-9.9,22.1-12.7S338.1,0,347.5,0c11.3,0,20.1,0.9,26.6,2.6
		s11.2,3.6,14.2,5.7l1.3,33.9h-0.1c-1.2-5.8-2.9-11.3-5.3-16.4c-2.3-5.1-5.3-9.6-8.8-13.4s-7.7-6.8-12.3-8.9s-9.9-3.2-15.6-3.2
		c-8.8,0-16.4,2.7-22.9,8.1c-6.5,5.4-11.5,13-15.1,22.9s-5.4,21.5-5.4,35c0,8.8,0.9,17.4,2.6,25.9s4.4,16.1,8,22.9
		c3.6,6.8,8.2,12.2,13.7,16.3s12.2,6.1,19.9,6.1c5,0,9.7-1,14.1-2.9c4.4-1.9,8.4-4.7,12-8.3s6.7-8,9.3-13.2s4.6-11.1,5.9-17.6h0.2
		l-1.3,33.9c-1.7,1.2-4.4,2.4-8.2,3.7c-3.8,1.3-8.4,2.4-13.9,3.3c-5.5,0.9-11.5,1.4-18.1,1.4c-10.5,0-20-1.6-28.6-4.9
		s-16-8-22.2-14.2s-11-13.5-14.4-22.2c-3.4-8.7-5.1-18.4-5.1-29.1S280,46.3,283.7,38L283.7,38z"/>
	<path class="st1" d="M514.9,127.2c1.5,2.8,3.2,4.9,5,6.2c1.8,1.3,4,2.2,6.5,2.8v0.1h-49.1v-0.1c3.2-0.4,5.7-1.4,7.3-2.9
		c1.6-1.5,2.5-3.7,2.5-6.6s-0.8-6.7-2.4-11.4l-31.1-91h0.1l-27.9,84.7c-2.1,6.6-3.4,11.8-3.7,15.5c-0.4,3.7,0.3,6.4,2,8.1
		s4.5,2.9,8.6,3.5v0.1h-29v-0.1c2.7-0.6,5-1.6,6.9-3.2c1.9-1.6,3.9-4.2,5.8-8c1.9-3.8,4.2-9.2,6.7-16.4L461.7,1.4h8.3l40.1,114.3
		C511.8,120.6,513.4,124.4,514.9,127.2z M432.4,85.6h53.9l0.2,1.3h-54.5L432.4,85.6z"/>
	<path class="st1" d="M120.4,208.1L120.4,208.1c-1.8-7.4-4-13.3-6.9-17.6s-6.8-7.5-11.7-9.6c-4.9-2.1-11.3-3.5-19.1-4.2l-4.9-0.5
		V297c0,3,0.3,5.4,0.8,7.3c0.6,1.9,1.7,3.3,3.4,4.3s4.1,1.8,7.3,2.3v0.1H43v-0.1c3.3-0.6,5.8-1.3,7.4-2.3c1.6-1,2.7-2.4,3.3-4.3
		s0.8-4.3,0.8-7.3V176.2l-4.9,0.5c-7.7,0.7-14,2.1-19,4.2c-4.9,2.1-8.8,5.3-11.7,9.6c-2.9,4.3-5.2,10.1-6.9,17.6H12l1.6-31.9h105.2
		L120.4,208.1L120.4,208.1z"/>
	<path class="st1" d="M234.6,226.3c-2.5,4.3-5.9,7.8-10.2,10.7s-9.3,4.9-14.8,6v-3.1l22.6,46.1c3.3,6.5,6,11.5,8.2,14.8
		c2.2,3.3,4.1,5.7,5.8,7s3.4,2.4,5,3.1v0.1h-30.4l-31.2-64.9h-18.1v53.1c0,2.5,0.3,4.5,0.9,5.9c0.6,1.4,1.6,2.6,3.1,3.4
		s3.5,1.6,6.2,2.4v0.1h-44.4v-0.1c2.9-0.8,5.1-1.6,6.6-2.5c1.5-0.9,2.6-2.1,3.2-3.6c0.6-1.6,0.9-3.6,0.9-6.3V188.7
		c0-2.9-0.3-5.1-0.9-6.7s-1.6-2.8-3.2-3.6s-3.7-1.5-6.6-2.1v-0.1h45c12.4,0,22.8,1.4,31.1,4.3c8.3,2.9,14.5,7,18.7,12.4
		c4.2,5.4,6.3,11.6,6.3,18.9C238.3,217.1,237.1,222,234.6,226.3L234.6,226.3z M211.4,195.2c-2.2-5.3-5.9-9.6-11-13.1
		c-5.1-3.4-12.2-5.3-21.1-5.6l-7.8-0.3V246l10.4-0.4c9.6-0.4,17.5-3.4,23.6-9c6.2-5.6,9.2-13.7,9.2-24.2
		C214.7,206.2,213.6,200.5,211.4,195.2L211.4,195.2z"/>
	<path class="st1" d="M364.7,302c1.5,2.8,3.2,4.9,5,6.2c1.8,1.3,4,2.2,6.5,2.8v0.1h-49.1v-0.1c3.2-0.4,5.7-1.4,7.3-2.9
		c1.6-1.5,2.5-3.7,2.5-6.6c0-2.9-0.8-6.7-2.4-11.4l-31.1-91h0.1l-27.9,84.7c-2.1,6.6-3.4,11.8-3.7,15.5c-0.4,3.7,0.3,6.4,2,8.1
		s4.5,2.9,8.6,3.5v0.1h-29v-0.1c2.7-0.6,5-1.6,6.9-3.2c1.9-1.6,3.9-4.2,5.8-8c1.9-3.8,4.2-9.2,6.7-16.4l38.7-107.2h8.3l40.1,114.3
		C361.5,295.3,363.1,299.2,364.7,302L364.7,302z M282.2,260.4H336l0.2,1.3h-54.5L282.2,260.4L282.2,260.4z"/>
	<path class="st1" d="M495.7,282.1L495.7,282.1l-1.9-78.5c-0.1-6.9-0.5-12.2-1.2-15.9c-0.6-3.8-1.9-6.5-3.6-8.1
		c-1.8-1.6-4.4-2.7-7.9-3.3v-0.1h28.4v0.1c-3.4,0.5-6,1.6-7.8,3.3s-3,4.4-3.6,8.1c-0.6,3.7-1,9-1.1,15.9L495.7,311h-10L398,183.1
		h1.3l1.6,100.6c0.1,6.9,0.5,12.2,1.1,15.9c0.6,3.8,1.8,6.5,3.6,8.1c1.8,1.6,4.5,2.7,7.9,3.3v0.1h-28.4v-0.1
		c3.5-0.6,6.1-1.7,7.8-3.3s2.9-4.4,3.6-8.1c0.6-3.8,1-9,1.1-15.8l1.4-91.1c0.1-3.4-0.3-6.1-1.1-8.2c-0.8-2.1-2-3.8-3.5-5
		c-1.6-1.3-3.5-2.3-5.8-3.1v-0.1h34.4L495.7,282.1L495.7,282.1z"/>
	<path class="st1" d="M631,282.1L631,282.1l-1.9-78.5c-0.1-6.9-0.5-12.2-1.2-15.9c-0.7-3.8-1.9-6.5-3.6-8.1s-4.4-2.7-7.9-3.3v-0.1
		h28.4v0.1c-3.4,0.5-6,1.6-7.8,3.3s-3,4.4-3.6,8.1c-0.7,3.7-1,9-1.1,15.9L631,311h-10l-87.7-127.9h1.3l1.6,100.6
		c0.1,6.9,0.5,12.2,1.1,15.9c0.6,3.8,1.8,6.5,3.6,8.1c1.8,1.6,4.5,2.7,7.9,3.3v0.1h-28.4v-0.1c3.5-0.6,6.1-1.7,7.8-3.3
		s2.9-4.4,3.6-8.1c0.7-3.8,1-9,1.1-15.8l1.4-91.1c0.1-3.4-0.3-6.1-1.1-8.2c-0.8-2.1-2-3.8-3.5-5c-1.6-1.3-3.5-2.3-5.8-3.1v-0.1h34.4
		L631,282.1L631,282.1z"/>
	<path class="st1" d="M694.9,304.9c0.6,1.6,1.7,2.8,3.2,3.7c1.5,0.9,3.7,1.6,6.6,2.3v0.1h-44.8v-0.1c2.9-0.7,5.1-1.5,6.6-2.3
		c1.5-0.9,2.6-2.1,3.2-3.7c0.6-1.6,0.9-3.7,0.9-6.4V188.7c0-2.7-0.3-4.9-0.9-6.4c-0.6-1.6-1.7-2.8-3.2-3.7s-3.7-1.7-6.6-2.3v-0.1
		h44.8v0.1c-2.9,0.6-5.1,1.4-6.6,2.3s-2.6,2.1-3.2,3.7c-0.6,1.6-0.9,3.7-0.9,6.4v109.8C694,301.2,694.3,303.3,694.9,304.9z"/>
	<path class="st1" d="M19.1,360c-1.5-2.8-3.2-4.9-5-6.2s-4-2.3-6.6-2.8v-0.1h49.1v0.1c-3.2,0.4-5.6,1.4-7.2,2.9
		c-1.7,1.5-2.5,3.7-2.5,6.6s0.7,6.7,2.3,11.4l31.2,91h-0.1l27.7-84.7c2.2-6.6,3.5-11.8,3.9-15.5c0.4-3.7-0.2-6.4-1.9-8.2
		c-1.7-1.7-4.6-2.9-8.6-3.5v-0.1h28.9v0.1c-2.6,0.5-4.9,1.5-6.8,3.1s-3.8,4.3-5.7,8c-1.9,3.8-4.2,9.2-6.8,16.4L72.2,485.8H64
		L23.9,371.5C22.2,366.6,20.6,362.8,19.1,360L19.1,360z"/>
	<path class="st1" d="M236.1,382.9L236.1,382.9c-1.9-7.6-4.4-13.5-7.6-17.8s-7.8-7.5-13.7-9.5c-5.9-2-13.9-3.3-23.9-3.8l-14-0.8
		v65.6l23.2-0.9c5.2-0.2,9.2-1.1,11.9-2.5s4.6-3.5,5.9-6.2s2.3-6.1,3.1-10.2h0.1v40h-0.1c-0.8-4.1-1.8-7.5-3-10.2s-3.2-4.8-5.9-6.2
		s-6.7-2.3-11.9-2.5l-23.2-0.9v68.9l20.4-1c7.2-0.4,13.3-1.2,18.4-2.5c5-1.3,9.1-3.2,12.4-5.7c3.2-2.5,5.9-5.9,7.9-10.1
		s3.8-9.3,5.1-15.5h0.1l-1.9,34.9h-96.7v-0.1c2.9-0.7,5.1-1.5,6.6-2.3c1.5-0.9,2.6-2.1,3.2-3.7c0.6-1.6,0.9-3.7,0.9-6.4V363.4
		c0-2.7-0.3-4.9-0.9-6.4c-0.6-1.6-1.6-2.8-3.2-3.7s-3.7-1.7-6.6-2.3v-0.1h91.8L236.1,382.9L236.1,382.9z"/>
	<path class="st1" d="M357.5,401c-2.5,4.3-5.9,7.8-10.2,10.7c-4.3,2.9-9.3,4.9-14.8,6v-3.1l22.6,46.1c3.3,6.5,6,11.5,8.2,14.8
		s4.1,5.7,5.8,7c1.7,1.4,3.4,2.4,5,3.1v0.1h-30.4l-31.2-64.9h-18.1V474c0,2.5,0.3,4.5,0.9,5.9c0.6,1.4,1.6,2.6,3.1,3.4
		s3.5,1.6,6.2,2.4v0.1h-44.4v-0.1c2.9-0.8,5.1-1.6,6.6-2.5c1.5-0.9,2.6-2.1,3.2-3.6c0.6-1.6,0.9-3.6,0.9-6.3V363.4
		c0-2.9-0.3-5.1-0.9-6.7c-0.6-1.6-1.6-2.8-3.2-3.6c-1.5-0.8-3.7-1.5-6.6-2.1v-0.1h45c12.5,0,22.8,1.5,31.1,4.3
		c8.3,2.9,14.5,7,18.7,12.4c4.2,5.4,6.3,11.6,6.3,18.9C361.3,391.9,360,396.7,357.5,401L357.5,401z M334.3,370
		c-2.2-5.3-5.9-9.6-11-13.1c-5.1-3.4-12.2-5.3-21.1-5.6l-7.8-0.3v69.8l10.4-0.4c9.6-0.4,17.5-3.4,23.6-9c6.2-5.6,9.2-13.7,9.2-24.2
		C337.7,381,336.5,375.3,334.3,370L334.3,370z"/>
	<path class="st1" d="M409,484.7c-6.8-1.7-12.3-3.6-16.4-5.9l-1.6-34h0.1c1.5,7,3.6,13.1,6.4,18.3c2.8,5.2,6,9.6,9.8,13.1
		c3.7,3.5,7.9,6.2,12.4,8c4.5,1.8,9.3,2.7,14.2,2.7c8,0,14.6-2.4,19.9-7.3c5.3-4.9,7.9-11.5,7.9-20c0-7-2.1-12.8-6.4-17.4
		c-4.3-4.6-11-8.8-20.2-12.4l-11-4.3c-10.4-4-18.4-9.4-23.9-16s-8.3-14.6-8.3-23.9c0-8.3,2.1-15.2,6.4-20.5
		c4.3-5.3,9.9-9.3,16.8-11.8s14.4-3.8,22.3-3.8c8.7,0,15.9,0.7,21.5,2.2s9.7,3,12.3,4.7l1,29.7h-0.1c-1.9-7.4-4.4-13.8-7.6-19.2
		c-3.2-5.4-7.1-9.6-11.6-12.6c-4.5-3-9.7-4.5-15.5-4.5c-8.7,0-15.4,2.2-19.9,6.6c-4.5,4.4-6.8,10-6.8,17s2.3,12.9,7,17.4
		c4.6,4.5,11.2,8.5,19.6,11.8l10.7,4.3c10.5,4.2,18.6,9.7,24.2,16.5s8.5,14.9,8.5,24.2c0,8.1-2.2,15.1-6.5,21
		c-4.3,5.9-10,10.5-17.1,13.7c-7.1,3.2-14.8,4.9-23.1,4.9C424.1,487.2,415.8,486.4,409,484.7L409,484.7z"/>
	<path class="st1" d="M600.2,476.7c1.5,2.8,3.2,4.9,5,6.2c1.8,1.3,4,2.2,6.5,2.8v0.1h-49.1v-0.1c3.2-0.4,5.7-1.4,7.3-2.9
		c1.7-1.5,2.5-3.7,2.5-6.6c0-2.9-0.8-6.7-2.4-11.4l-31.1-91h0.1l-27.9,84.7c-2.1,6.6-3.4,11.8-3.7,15.5c-0.4,3.7,0.3,6.4,2,8.1
		s4.5,2.9,8.6,3.5v0.1h-29v-0.1c2.7-0.6,5-1.6,6.9-3.2s3.9-4.2,5.8-8c1.9-3.8,4.2-9.2,6.7-16.4L547,350.9h8.3l40.1,114.3
		C597,470.1,598.6,473.9,600.2,476.7L600.2,476.7z M517.7,435.2h53.9l0.2,1.3h-54.5L517.7,435.2z"/>
	<path class="st1" d="M721.4,401c-2.5,4.3-5.9,7.8-10.2,10.7c-4.3,2.9-9.3,4.9-14.8,6v-3.1l22.6,46.1c3.3,6.5,6,11.5,8.2,14.8
		s4.1,5.7,5.8,7s3.4,2.4,5,3.1v0.1h-30.4l-31.2-64.9h-18.1V474c0,2.5,0.3,4.5,0.9,5.9c0.6,1.4,1.6,2.6,3.1,3.4s3.5,1.6,6.2,2.4v0.1
		h-44.4v-0.1c2.9-0.8,5.1-1.6,6.6-2.5s2.6-2.1,3.2-3.6c0.6-1.6,0.9-3.6,0.9-6.3V363.4c0-2.9-0.3-5.1-0.9-6.7s-1.7-2.8-3.2-3.6
		c-1.5-0.8-3.7-1.5-6.6-2.1v-0.1h45c12.5,0,22.8,1.5,31.1,4.3s14.5,7,18.7,12.4s6.3,11.6,6.3,18.9
		C725.1,391.9,723.9,396.7,721.4,401L721.4,401z M698.2,370c-2.2-5.3-5.9-9.6-11-13.1c-5.1-3.4-12.2-5.3-21.1-5.6l-7.8-0.3v69.8
		l10.4-0.4c9.6-0.4,17.5-3.4,23.6-9c6.2-5.6,9.2-13.7,9.2-24.2C701.5,381,700.4,375.3,698.2,370L698.2,370z"/>
	<path class="st1" d="M749.3,359c-2.1-2.8-4-4.7-5.7-5.8c-1.7-1.1-3.6-1.8-5.7-2.2v-0.1H786v0.1c-4.3,0.8-6.9,2.6-7.9,5.5
		c-1,2.9,0.6,8,4.7,15.3l26.4,47.2l21.6-41.4c3.5-6.7,5.8-11.8,6.8-15.4c1-3.6,0.7-6.2-0.8-7.9c-1.5-1.6-4.1-2.8-7.8-3.3v-0.1H857
		v0.1c-2.4,0.6-4.7,1.6-6.7,3.1c-2.1,1.5-4.4,4.1-7,7.9c-2.6,3.7-5.9,9.1-10,16.1l-24.2,41.4v52.3c0,3,0.3,5.4,0.8,7.3
		c0.6,1.9,1.7,3.3,3.4,4.3s4.1,1.8,7.3,2.3v0.1h-46.3v-0.1c3.2-0.6,5.7-1.3,7.3-2.3c1.6-1,2.7-2.4,3.3-4.3s0.8-4.3,0.8-7.3v-50.5
		l-28.4-49.7C754.1,366,751.4,361.8,749.3,359L749.3,359z"/>
</g>
</svg>
